# This file uses centimeters as units for non-parametric coordinates.

mtllib crutch.mtl
g default
v 1.337539 -0.222959 -1.747290
v 0.971779 -0.222959 -2.113050
v 0.971779 0.222959 -2.113050
v 1.337539 0.222959 -1.747290
v 0.740142 -0.222959 -1.794229
v 0.740142 -0.222959 -1.794229
v 1.018718 -0.222959 -1.515652
v 1.018718 -0.222959 -1.515652
v 1.018718 0.222959 -1.515652
v 1.018718 0.222959 -1.515652
v 0.740142 0.222959 -1.794229
v 0.740142 0.222959 -1.794229
v 1.572372 -0.222959 -1.286405
v 1.197575 -0.222959 -1.164626
v 1.197575 0.222959 -1.164626
v 1.572372 0.222959 -1.286405
v 1.653289 -0.222959 -0.775510
v 1.259204 -0.222959 -0.775510
v 1.259204 0.222959 -0.775510
v 1.653289 0.222959 -0.775510
v 0.510895 0.222959 -2.347882
v 0.389116 0.222959 -1.973085
v 0.510895 -0.222959 -2.347882
v -1.259204 0.222959 -0.775510
v -1.653289 0.222959 -0.775510
v -1.259204 -0.222959 -0.775510
v 0.000000 -0.222959 -2.034715
v 0.389116 -0.222959 -1.973085
v 0.389116 0.222959 -1.973085
v 0.000000 0.222959 -2.034715
v 0.389116 -0.222959 -1.973085
v -1.653289 -0.222959 -0.775510
v 0.000000 -0.222959 -2.428800
v 0.000000 0.222959 -2.428800
v -1.197574 0.222959 -1.164626
v -1.572371 0.222959 -1.286405
v -1.197574 -0.222959 -1.164626
v -0.389115 -0.222959 -1.973085
v -0.389115 0.222959 -1.973085
v -1.018717 -0.222959 -1.515652
v -1.018717 0.222959 -1.515652
v -0.740141 0.222959 -1.794228
v -0.971778 0.222959 -2.113050
v -1.337538 0.222959 -1.747290
v -1.018717 0.222959 -1.515652
v -1.572371 -0.222959 -1.286405
v -0.510894 -0.222959 -2.347882
v -0.510894 0.222959 -2.347882
v -1.337538 -0.222959 -1.747290
v -0.971778 -0.222959 -2.113050
v -0.389115 0.222959 -1.973085
v -1.018717 -0.222959 -1.515652
v -0.740141 -0.222959 -1.794228
v -0.740141 0.222959 -1.794228
v -0.389115 -0.222959 -1.973085
v -0.740141 -0.222959 -1.794228
v 1.653289 -0.222959 4.428800
v 1.259204 -0.222959 4.428800
v 1.653289 0.222959 4.428800
v 1.259204 0.222959 4.428800
vt 0.387500 0.312500
vt 0.400000 0.312500
vt 0.400000 0.688440
vt 0.387500 0.688440
vt 0.400000 0.384644
vt 0.400000 0.384644
vt 0.387500 0.384644
vt 0.387500 0.384644
vt 0.387500 0.616296
vt 0.387500 0.616296
vt 0.400000 0.616296
vt 0.400000 0.616296
vt 0.596278 0.912210
vt 0.626409 0.935591
vt 0.591841 0.970159
vt 0.569950 0.938538
vt 0.626409 0.064408
vt 0.648603 0.107966
vt 0.613181 0.117985
vt 0.596278 0.084810
vt 0.596278 0.084810
vt 0.375000 0.384644
vt 0.375000 0.616296
vt 0.375000 0.312500
vt 0.375000 0.688440
vt 0.656250 0.156250
vt 0.619006 0.154760
vt 0.625000 0.384644
vt 0.612500 0.384644
vt 0.612500 0.616296
vt 0.625000 0.616296
vt 0.648603 0.892034
vt 0.596278 0.912210
vt 0.613181 0.879035
vt 0.612500 0.312500
vt 0.625000 0.312500
vt 0.625000 0.688440
vt 0.612500 0.688440
vt 0.619006 0.842260
vt 0.656250 0.843750
vt 0.569950 0.058483
vt 0.591842 0.029841
vt 0.548284 0.992353
vt 0.536775 0.955441
vt 0.569950 0.938538
vt 0.412500 0.312500
vt 0.412500 0.688440
vt 0.425000 0.384644
vt 0.412500 0.384644
vt 0.412500 0.616296
vt 0.425000 0.616296
vt 0.548284 0.007647
vt 0.569950 0.058483
vt 0.536775 0.041579
vt 0.425000 0.312500
vt 0.425000 0.688440
vt 0.500000 1.000000
vt 0.500000 0.961266
vt 0.536775 0.955441
vt 0.412500 0.384644
vt 0.412500 0.616296
vt 0.386819 0.879035
vt 0.351397 0.892034
vt 0.343750 0.843750
vt 0.380994 0.842260
vt 0.487500 0.384644
vt 0.475000 0.384644
vt 0.475000 0.616296
vt 0.487500 0.616296
vt 0.437500 0.384644
vt 0.437500 0.616296
vt 0.462500 0.384644
vt 0.462500 0.616296
vt 0.430050 0.938538
vt 0.408159 0.970159
vt 0.373591 0.935591
vt 0.403722 0.912210
vt 0.475000 0.312500
vt 0.487500 0.312500
vt 0.487500 0.688440
vt 0.475000 0.688440
vt 0.437500 0.312500
vt 0.437500 0.688440
vt 0.380994 0.154760
vt 0.343750 0.156250
vt 0.351397 0.107966
vt 0.386819 0.117985
vt 0.500000 -0.000000
vt 0.536775 0.041579
vt 0.500000 0.035755
vt 0.462500 0.312500
vt 0.462500 0.688440
vt 0.450000 0.312500
vt 0.450000 0.688440
vt 0.451716 0.992353
vt 0.463225 0.955441
vt 0.463225 0.955441
vt 0.403722 0.084810
vt 0.373591 0.064409
vt 0.408159 0.029841
vt 0.430050 0.058483
vt 0.403722 0.912210
vt 0.430050 0.938538
vt 0.451716 0.007647
vt 0.463225 0.041579
vt 0.463225 0.041579
vt 0.403722 0.084810
vt 0.430050 0.058483
vt 0.450000 0.384644
vt 0.437500 0.384644
vt 0.437500 0.616296
vt 0.450000 0.616296
vt 0.462500 0.384644
vt 0.450000 0.384644
vt 0.450000 0.616296
vt 0.462500 0.616296
vt 0.619006 0.154760
vt 0.612500 0.312500
vt 0.656250 0.843750
vt 0.612500 0.616296
vn 0.809017 0.000000 -0.587785
vn 0.587785 0.000000 -0.809017
vn 0.587785 0.000000 -0.809017
vn 0.809017 0.000000 -0.587785
vn -0.453990 0.000000 0.891007
vn 0.000000 0.000000 0.000000
vn 0.000000 0.000000 0.000000
vn -0.891006 0.000000 0.453991
vn -0.891006 0.000000 0.453991
vn 0.000000 0.000000 0.000000
vn 0.000000 0.000000 0.000000
vn -0.453990 0.000000 0.891007
vn 0.000000 1.000000 0.000000
vn 0.000000 1.000000 0.000000
vn 0.000000 1.000000 0.000000
vn 0.000000 1.000000 0.000000
vn 0.000000 -1.000000 0.000000
vn 0.000000 -1.000000 0.000000
vn 0.000000 -1.000000 0.000000
vn 0.000000 0.000000 0.000000
vn 0.000000 -1.000000 0.000000
vn -0.891006 0.000000 0.453991
vn -0.951057 0.000000 0.309016
vn -0.951057 0.000000 0.309016
vn -0.891006 0.000000 0.453991
vn 0.951057 0.000000 -0.309016
vn 0.809017 0.000000 -0.587785
vn 0.809017 0.000000 -0.587785
vn 0.951057 0.000000 -0.309016
vn 0.000000 -1.000000 0.000000
vn 0.000000 -1.000000 0.000000
vn 0.000000 -1.000000 0.000000
vn 0.000000 -1.000000 0.000000
vn -0.951057 0.000000 0.309016
vn -0.987689 0.000000 0.156432
vn -0.987689 0.000000 0.156432
vn -0.951057 0.000000 0.309016
vn 0.000000 1.000000 0.000000
vn 0.000000 1.000000 0.000000
vn 0.000000 1.000000 0.000000
vn 0.000000 0.000000 0.000000
vn 0.000000 1.000000 0.000000
vn 0.987689 0.000000 -0.156432
vn 0.951057 0.000000 -0.309016
vn 0.951057 0.000000 -0.309016
vn 0.987689 0.000000 -0.156432
vn 0.000000 1.000000 0.000000
vn 0.000000 1.000000 0.000000
vn 0.000000 1.000000 0.000000
vn 0.000000 1.000000 0.000000
vn 0.000000 -1.000000 0.000000
vn 0.000000 -1.000000 0.000000
vn 0.000000 -1.000000 0.000000
vn 0.000000 -1.000000 0.000000
vn 0.000000 1.000000 0.000000
vn 0.000000 1.000000 0.000000
vn 0.000000 1.000000 0.000000
vn 0.000000 0.000000 0.000000
vn 0.000000 1.000000 0.000000
vn 0.587785 0.000000 -0.809017
vn 0.309017 0.000000 -0.951057
vn 0.309017 0.000000 -0.951057
vn 0.587785 0.000000 -0.809017
vn 0.000000 0.000000 1.000000
vn -0.309017 0.000000 0.951057
vn -0.309017 0.000000 0.951057
vn 0.000000 0.000000 1.000000
vn 0.000000 -1.000000 0.000000
vn 0.000000 -1.000000 0.000000
vn 0.000000 -1.000000 0.000000
vn 0.000000 0.000000 0.000000
vn 0.000000 -1.000000 0.000000
vn 0.309017 0.000000 -0.951057
vn 0.000000 0.000000 -1.000000
vn 0.000000 0.000000 -1.000000
vn 0.309017 0.000000 -0.951057
vn 0.000000 1.000000 0.000000
vn 0.000000 1.000000 0.000000
vn 0.000000 1.000000 0.000000
vn 0.000000 1.000000 0.000000
vn 0.000000 1.000000 0.000000
vn -0.309017 0.000000 0.951057
vn -0.453990 0.000000 0.891007
vn -0.453990 0.000000 0.891007
vn -0.453990 0.000000 0.891007
vn -0.453990 0.000000 0.891007
vn -0.309017 0.000000 0.951057
vn 0.000000 1.000000 0.000000
vn 0.000000 1.000000 0.000000
vn 0.000000 1.000000 0.000000
vn 0.000000 1.000000 0.000000
vn 0.987688 0.000000 0.156434
vn 0.951057 0.000000 0.309017
vn 0.951057 0.000000 0.309017
vn 0.987688 0.000000 0.156434
vn 0.156435 0.000000 0.987688
vn 0.000000 0.000000 1.000000
vn 0.000000 0.000000 1.000000
vn 0.156435 0.000000 0.987688
vn 0.951057 0.000000 0.309017
vn 0.891007 0.000000 0.453990
vn 0.891007 0.000000 0.453990
vn 0.951057 0.000000 0.309017
vn 0.000000 1.000000 0.000000
vn 0.000000 1.000000 0.000000
vn 0.000000 1.000000 0.000000
vn 0.000000 1.000000 0.000000
vn -0.951057 0.000000 -0.309017
vn -0.987688 0.000000 -0.156434
vn -0.987688 0.000000 -0.156434
vn -0.951057 0.000000 -0.309017
vn 0.000000 0.000000 -1.000000
vn -0.309017 0.000000 -0.951057
vn -0.309017 0.000000 -0.951057
vn 0.000000 0.000000 -1.000000
vn 0.000000 -1.000000 0.000000
vn 0.000000 -1.000000 0.000000
vn 0.000000 -1.000000 0.000000
vn 0.000000 -1.000000 0.000000
vn 0.000000 -1.000000 0.000000
vn 0.000000 -1.000000 0.000000
vn 0.000000 -1.000000 0.000000
vn 0.000000 -1.000000 0.000000
vn 0.000000 -1.000000 0.000000
vn -0.809017 0.000000 -0.587785
vn -0.951057 0.000000 -0.309017
vn -0.951057 0.000000 -0.309017
vn -0.809017 0.000000 -0.587785
vn -0.309017 0.000000 -0.951057
vn -0.587786 0.000000 -0.809017
vn -0.587786 0.000000 -0.809017
vn -0.309017 0.000000 -0.951057
vn 0.000000 1.000000 0.000000
vn 0.000000 1.000000 0.000000
vn 0.000000 1.000000 0.000000
vn 0.000000 0.000000 0.000000
vn 0.000000 1.000000 0.000000
vn 0.000000 -1.000000 0.000000
vn 0.000000 -1.000000 0.000000
vn 0.000000 -1.000000 0.000000
vn 0.000000 -1.000000 0.000000
vn -0.587786 0.000000 -0.809017
vn -0.809017 0.000000 -0.587785
vn -0.809017 0.000000 -0.587785
vn -0.587786 0.000000 -0.809017
vn 0.000000 1.000000 0.000000
vn 0.000000 1.000000 0.000000
vn 0.000000 1.000000 0.000000
vn 0.000000 0.000000 0.000000
vn 0.000000 1.000000 0.000000
vn 0.000000 1.000000 0.000000
vn 0.000000 1.000000 0.000000
vn 0.000000 1.000000 0.000000
vn 0.000000 0.000000 0.000000
vn 0.000000 1.000000 0.000000
vn 0.000000 -1.000000 0.000000
vn 0.000000 -1.000000 0.000000
vn 0.000000 -1.000000 0.000000
vn 0.000000 0.000000 0.000000
vn 0.000000 -1.000000 0.000000
vn 0.000000 -1.000000 0.000000
vn 0.000000 -1.000000 0.000000
vn 0.000000 -1.000000 0.000000
vn 0.000000 0.000000 0.000000
vn 0.000000 -1.000000 0.000000
vn 0.000000 -1.000000 0.000000
vn 0.000000 -1.000000 0.000000
vn 0.000000 -1.000000 0.000000
vn 0.000000 0.000000 0.000000
vn 0.000000 -1.000000 0.000000
vn 0.453991 0.000000 0.891006
vn 0.000000 0.000000 0.000000
vn 0.156435 0.000000 0.987688
vn 0.156435 0.000000 0.987688
vn 0.000000 0.000000 0.000000
vn 0.453991 0.000000 0.891006
vn 0.891007 0.000000 0.453990
vn 0.000000 0.000000 0.000000
vn 0.000000 0.000000 0.000000
vn 0.453991 0.000000 0.891006
vn 0.453991 0.000000 0.891006
vn 0.000000 0.000000 0.000000
vn 0.000000 0.000000 0.000000
vn 0.891007 0.000000 0.453990
vn 0.000000 0.000000 1.000000
vn 0.000000 0.000000 1.000000
vn 0.000000 0.000000 1.000000
vn 0.000000 0.000000 1.000000
vn 0.000000 0.000000 1.000000
vn 0.000000 0.000000 1.000000
vn 0.000000 0.000000 1.000000
vn 0.000000 0.000000 1.000000
vn 0.000000 -1.000000 0.000000
vn 0.000000 -1.000000 0.000000
vn 0.000000 -1.000000 0.000000
vn 0.000000 -1.000000 0.000000
vn 1.000000 0.000000 0.000000
vn 1.000000 0.000000 0.000000
vn 1.000000 0.000000 0.000000
vn 1.000000 0.000000 0.000000
vn 0.000000 1.000000 0.000000
vn 0.000000 1.000000 0.000000
vn 0.000000 1.000000 0.000000
vn 0.000000 1.000000 0.000000
vn -1.000000 0.000000 0.000000
vn -1.000000 0.000000 0.000000
vn -1.000000 0.000000 0.000000
vn -1.000000 0.000000 0.000000
s off
g crutch:pCylinder3
usemtl initialShadingGroup
f 1/1/1 2/2/2 3/3/3 4/4/4
f 5/5/5 6/6/6 7/7/7 8/8/8 9/9/9 10/10/10 11/11/11 12/12/12
f 10/13/13 4/14/14 3/15/15 11/16/16
f 1/17/17 13/18/18 14/19/19 8/20/20 7/21/21
f 8/8/22 14/22/23 15/23/24 9/9/25
f 13/24/26 1/1/27 4/4/28 16/25/29
f 14/19/30 13/18/31 17/26/32 18/27/33
f 14/28/34 18/29/35 19/30/36 15/31/37
f 16/32/38 4/14/39 10/13/40 9/33/41 15/34/42
f 17/35/43 13/36/44 16/37/45 20/38/46
f 19/39/47 20/40/48 16/32/49 15/34/50
f 6/41/51 2/42/52 1/17/53 7/21/54
f 3/15/55 21/43/56 22/44/57 12/45/58 11/16/59
f 2/2/60 23/46/61 21/47/62 3/3/63
f 27/48/64 28/49/65 29/50/66 30/51/67
f 23/52/68 2/42/69 6/41/70 5/53/71 31/54/72
f 23/46/73 33/55/74 34/56/75 21/47/76
f 21/43/77 34/57/78 30/58/79 29/59/80 22/44/81
f 28/49/82 31/60/83 5/5/84 12/12/85 22/61/86 29/50/87
f 35/62/88 36/63/89 25/64/90 24/65/91
f 26/66/92 37/67/93 35/68/94 24/69/95
f 38/70/96 27/48/97 30/51/98 39/71/99
f 37/67/100 40/72/101 41/73/102 35/68/103
f 42/74/104 43/75/105 44/76/106 45/77/107
f 46/78/108 32/79/109 25/80/110 36/81/111
f 33/55/112 47/82/113 48/83/114 34/56/115
f 26/84/116 32/85/117 46/86/118 37/87/119
f 33/88/120 23/52/121 31/54/122 28/89/123 27/90/124
f 49/91/125 46/78/126 36/81/127 44/92/128
f 47/82/129 50/93/130 43/94/131 48/83/132
f 34/57/133 48/95/134 51/96/135 39/97/136 30/58/137
f 52/98/138 49/99/139 50/100/140 53/101/141
f 50/93/142 49/91/143 44/92/144 43/94/145
f 44/76/146 36/63/147 35/62/148 41/102/149 45/77/150
f 48/95/151 43/75/152 42/74/153 54/103/154 51/96/155
f 47/104/156 33/88/157 27/90/158 38/105/159 55/106/160
f 46/86/161 49/99/162 52/98/163 40/107/164 37/87/165
f 50/100/166 47/104/167 55/106/168 56/108/169 53/101/170
f 56/109/171 55/110/172 38/70/173 39/71/174 51/111/175 54/112/176
f 40/72/177 52/113/178 53/114/179 56/109/180 54/112/181 42/115/182 45/116/183 41/73/184
f 25/80/185 32/85/186 26/66/187 24/65/188
f 58/117/189 57/118/190 59/119/191 60/120/192
f 18/27/193 17/35/194 57/118/195 58/117/196
f 17/35/197 20/40/198 59/119/199 57/118/200
f 20/40/201 19/30/202 60/120/203 59/119/204
f 19/30/205 18/27/206 58/117/207 60/120/208
