# This file uses centimeters as units for non-parametric coordinates.

mtllib cube.mtl
g default
v -1.337370 -1.337370 1.337370
v -1.003028 -1.337370 1.337370
v 1.003028 -1.337370 1.337370
v 1.337370 -1.337370 1.337370
v -1.337370 -1.003028 1.337370
v -1.003028 -1.003028 1.337370
v 1.003028 -1.003028 1.337370
v 1.337370 -1.003028 1.337370
v 1.003028 1.003028 1.337370
v 1.337370 1.003028 1.337370
v 1.003028 1.337370 1.337370
v 1.337370 1.337370 1.337370
v 1.003028 1.337370 1.003028
v 1.337370 1.337370 1.003028
v -1.337370 1.337370 -1.003028
v -1.003028 1.337370 -1.003028
v 1.003028 1.337370 -1.003028
v 1.337370 1.337370 -1.003028
v -1.337370 1.337370 -1.337370
v -1.003028 1.337370 -1.337370
v 1.003028 1.337370 -1.337370
v 1.337370 1.337370 -1.337370
v -1.337370 1.003028 -1.337370
v -1.003028 1.003028 -1.337370
v 1.003028 1.003028 -1.337370
v 1.337370 1.003028 -1.337370
v -1.337370 -1.003028 -1.337370
v -1.003028 -1.003028 -1.337370
v -1.337370 -1.337370 -1.337370
v -1.003028 -1.337370 -1.337370
v -1.337370 -1.337370 -1.003028
v -1.003028 -1.337370 -1.003028
v -1.337370 -1.337370 1.003028
v -1.003028 -1.337370 1.003028
v 1.003028 -1.337370 1.003028
v 1.337370 -1.337370 1.003028
v 1.337370 -1.003028 1.003028
v 1.337370 1.003028 -1.003028
v 1.337370 1.003028 1.003028
v -1.337370 -1.003028 -1.003028
v -1.337370 -1.003028 1.003028
v -1.337370 1.003028 -1.003028
v -1.004475 1.004475 -1.004475
v 1.004475 1.004475 -1.004475
v -1.004475 -1.004475 1.004475
v 1.004475 -1.004475 1.004475
v -1.004475 -1.004475 -1.004475
v 1.004475 1.004475 1.004475
vt 0.375000 0.000000
vt 0.406250 0.000000
vt 0.593750 0.000000
vt 0.625000 0.000000
vt 0.375000 0.031250
vt 0.406250 0.031250
vt 0.593750 0.031250
vt 0.625000 0.031250
vt 0.593750 0.218750
vt 0.625000 0.218750
vt 0.593750 0.250000
vt 0.625000 0.250000
vt 0.593750 0.281250
vt 0.625000 0.281250
vt 0.375000 0.468750
vt 0.406250 0.468750
vt 0.593750 0.468750
vt 0.625000 0.468750
vt 0.375000 0.500000
vt 0.406250 0.500000
vt 0.593750 0.500000
vt 0.625000 0.500000
vt 0.375000 0.531250
vt 0.406250 0.531250
vt 0.593750 0.531250
vt 0.625000 0.531250
vt 0.375000 0.718750
vt 0.406250 0.718750
vt 0.375000 0.750000
vt 0.406250 0.750000
vt 0.375000 0.781250
vt 0.406250 0.781250
vt 0.375000 0.968750
vt 0.406250 0.968750
vt 0.593750 0.968750
vt 0.625000 0.968750
vt 0.375000 1.000000
vt 0.406250 1.000000
vt 0.593750 1.000000
vt 0.625000 1.000000
vt 0.656250 0.000000
vt 0.656250 0.031250
vt 0.875000 0.218750
vt 0.843750 0.218750
vt 0.656250 0.218750
vt 0.875000 0.250000
vt 0.843750 0.250000
vt 0.656250 0.250000
vt 0.125000 0.000000
vt 0.156250 0.000000
vt 0.343750 0.000000
vt 0.125000 0.031250
vt 0.156250 0.031250
vt 0.343750 0.031250
vt 0.125000 0.218750
vt 0.156250 0.218750
vt 0.125000 0.250000
vt 0.156250 0.250000
vt 0.000000 0.000000
vt 1.000000 0.000000
vt 1.000000 1.000000
vt 0.000000 1.000000
vt 0.000000 0.000000
vt 0.000000 1.000000
vt 0.000000 0.000000
vt 1.000000 0.000000
vt 1.000000 1.000000
vt 0.000000 1.000000
vt 0.000000 0.000000
vt 1.000000 0.000000
vt 0.000000 0.000000
vt 1.000000 0.000000
vt 1.000000 1.000000
vt 0.000000 1.000000
vt 0.000000 0.000000
vt 1.000000 0.000000
vt 0.000000 0.000000
vt 0.000000 1.000000
vt 0.000000 0.000000
vt 1.000000 0.000000
vt 1.000000 1.000000
vt 0.000000 1.000000
vt 0.000000 0.000000
vt 1.000000 0.000000
vt 0.000000 0.000000
vt 1.000000 0.000000
vt 1.000000 1.000000
vt 0.000000 1.000000
vt 0.000000 0.000000
vt 0.000000 1.000000
vt 0.000000 0.000000
vt 1.000000 0.000000
vt 1.000000 1.000000
vt 0.000000 1.000000
vt 0.000000 0.000000
vt 1.000000 0.000000
vt 0.000000 0.000000
vt 1.000000 0.000000
vt 1.000000 1.000000
vt 0.000000 1.000000
vt 0.000000 0.000000
vt 0.000000 1.000000
vt 0.000000 0.000000
vt 1.000000 0.000000
vt 1.000000 1.000000
vt 0.000000 1.000000
vt 0.000000 0.000000
vt 1.000000 0.000000
vt 1.000000 1.000000
vt 0.000000 1.000000
vt 0.000000 0.000000
vt 0.000000 1.000000
vt 0.000000 0.000000
vt 1.000000 0.000000
vt 0.000000 0.000000
vt 1.000000 0.000000
vt 1.000000 1.000000
vt 0.000000 1.000000
vt 0.000000 0.000000
vt 1.000000 0.000000
vt 1.000000 1.000000
vt 0.000000 1.000000
vt 0.000000 0.000000
vt 0.000000 1.000000
vt 0.000000 0.000000
vt 1.000000 0.000000
vt 1.000000 1.000000
vt 0.000000 1.000000
vt 0.000000 0.000000
vt 1.000000 0.000000
vn 0.000000 0.000000 1.000000
vn 0.000000 0.000000 1.000000
vn 0.000000 0.000000 1.000000
vn 0.000000 0.000000 1.000000
vn 0.000000 0.000000 1.000000
vn 0.000000 0.000000 1.000000
vn 0.000000 0.000000 1.000000
vn 0.000000 0.000000 1.000000
vn 0.000000 0.000000 1.000000
vn 0.000000 0.000000 1.000000
vn 0.000000 0.000000 1.000000
vn 0.000000 0.000000 1.000000
vn 0.000000 1.000000 0.000000
vn 0.000000 1.000000 0.000000
vn 0.000000 1.000000 0.000000
vn 0.000000 1.000000 0.000000
vn 0.000000 1.000000 0.000000
vn 0.000000 1.000000 0.000000
vn 0.000000 1.000000 0.000000
vn 0.000000 1.000000 0.000000
vn 0.000000 1.000000 0.000000
vn 0.000000 1.000000 0.000000
vn 0.000000 1.000000 0.000000
vn 0.000000 1.000000 0.000000
vn 0.000000 0.000000 -1.000000
vn 0.000000 0.000000 -1.000000
vn 0.000000 0.000000 -1.000000
vn 0.000000 0.000000 -1.000000
vn 0.000000 0.000000 -1.000000
vn 0.000000 0.000000 -1.000000
vn 0.000000 0.000000 -1.000000
vn 0.000000 0.000000 -1.000000
vn 0.000000 0.000000 -1.000000
vn 0.000000 0.000000 -1.000000
vn 0.000000 0.000000 -1.000000
vn 0.000000 0.000000 -1.000000
vn 0.000000 -1.000000 0.000000
vn 0.000000 -1.000000 0.000000
vn 0.000000 -1.000000 0.000000
vn 0.000000 -1.000000 0.000000
vn 0.000000 -1.000000 0.000000
vn 0.000000 -1.000000 0.000000
vn 0.000000 -1.000000 0.000000
vn 0.000000 -1.000000 0.000000
vn 0.000000 -1.000000 0.000000
vn 0.000000 -1.000000 0.000000
vn 0.000000 -1.000000 0.000000
vn 0.000000 -1.000000 0.000000
vn 1.000000 0.000000 0.000000
vn 1.000000 0.000000 0.000000
vn 1.000000 0.000000 0.000000
vn 1.000000 0.000000 0.000000
vn 1.000000 0.000000 0.000000
vn 1.000000 0.000000 0.000000
vn 1.000000 0.000000 0.000000
vn 1.000000 0.000000 0.000000
vn 1.000000 0.000000 0.000000
vn 1.000000 0.000000 0.000000
vn 1.000000 0.000000 0.000000
vn 1.000000 0.000000 0.000000
vn -1.000000 0.000000 0.000000
vn -1.000000 0.000000 0.000000
vn -1.000000 0.000000 0.000000
vn -1.000000 0.000000 0.000000
vn -1.000000 0.000000 0.000000
vn -1.000000 0.000000 0.000000
vn -1.000000 0.000000 0.000000
vn -1.000000 0.000000 0.000000
vn -1.000000 0.000000 0.000000
vn -1.000000 0.000000 0.000000
vn -1.000000 0.000000 0.000000
vn -1.000000 0.000000 0.000000
vn 0.000000 -0.999991 0.004348
vn -0.000309 -0.999992 0.004039
vn -0.002174 -0.999995 0.002174
vn 0.000000 -0.999991 0.004348
vn -0.002175 -0.999995 0.002174
vn -0.004039 -0.999992 0.000309
vn -0.000309 0.004039 -0.999992
vn 0.000000 0.004348 -0.999991
vn 0.000000 0.004348 -0.999991
vn -0.002174 0.002174 -0.999995
vn 0.999992 0.000309 0.004039
vn 0.999991 0.000000 0.004348
vn 0.999991 0.000000 0.004348
vn 0.999995 0.002174 0.002174
vn 0.999992 0.004039 0.000309
vn 0.999995 0.002174 0.002174
vn 0.999991 0.004348 0.000000
vn 0.999991 0.004348 0.000000
vn -0.004348 -0.999991 -0.000000
vn -0.004348 -0.999991 -0.000000
vn -0.004039 0.000309 -0.999992
vn -0.002174 0.002174 -0.999995
vn -0.004348 0.000000 -0.999991
vn -0.004348 0.000000 -0.999991
vn 0.000309 0.999992 -0.004039
vn 0.000000 0.999991 -0.004348
vn 0.000000 0.999991 -0.004348
vn 0.002174 0.999995 -0.002174
vn 0.002174 -0.002174 0.999995
vn 0.000309 -0.004039 0.999992
vn 0.002174 -0.002173 0.999995
vn 0.004040 -0.000309 0.999992
vn 0.000000 -0.004348 0.999991
vn 0.000000 -0.004348 0.999991
vn -0.999991 0.000000 -0.004348
vn -0.999992 -0.000309 -0.004039
vn -0.999995 -0.002174 -0.002174
vn -0.999991 0.000000 -0.004348
vn -0.999995 -0.002174 -0.002174
vn -0.999992 -0.004039 -0.000309
vn -0.999991 -0.004348 -0.000000
vn -0.999991 -0.004348 -0.000000
vn 0.004348 0.999991 0.000000
vn 0.004039 0.999992 -0.000309
vn 0.004348 0.999991 0.000000
vn 0.002174 0.999995 -0.002174
vn 0.004349 0.000000 0.999991
vn 0.004349 0.000000 0.999991
s 1
g pCube1
usemtl initialShadingGroup
f 1/1/1 2/2/2 6/6/3 5/5/4
f 6/6/3 2/2/2 3/3/5 7/7/6
f 3/3/5 4/4/7 8/8/8 7/7/6
f 10/10/9 9/9/10 7/7/6 8/8/8
f 9/9/10 10/10/9 12/12/11 11/11/12
s 2
f 11/11/13 12/12/14 14/14/15 13/13/16
f 18/18/17 17/17/18 13/13/16 14/14/15
f 15/15/19 16/16/20 20/20/21 19/19/22
f 20/20/21 16/16/20 17/17/18 21/21/23
f 17/17/18 18/18/17 22/22/24 21/21/23
s 4
f 19/19/25 20/20/26 24/24/27 23/23/28
f 24/24/27 20/20/26 21/21/29 25/25/30
f 21/21/29 22/22/31 26/26/32 25/25/30
f 24/24/27 28/28/33 27/27/34 23/23/28
f 27/27/34 28/28/33 30/30/35 29/29/36
s 5
f 29/29/37 30/30/38 32/32/39 31/31/40
f 32/32/39 34/34/41 33/33/42 31/31/40
f 33/33/42 34/34/41 2/38/43 1/37/44
f 3/39/45 2/38/43 34/34/41 35/35/46
f 35/35/46 36/36/47 4/40/48 3/39/45
s 6
f 4/4/49 36/41/50 37/42/51 8/8/52
f 10/10/53 8/8/52 37/42/51 39/45/54
f 38/44/55 26/43/56 22/46/57 18/47/58
f 18/47/58 14/48/59 39/45/54 38/44/55
f 10/10/53 39/45/54 14/48/59 12/12/60
s 8
f 29/49/61 31/50/62 40/53/63 27/52/64
f 40/53/63 31/50/62 33/51/65 41/54/66
f 33/51/65 1/1/67 5/5/68 41/54/66
f 40/53/63 42/56/69 23/55/70 27/52/64
f 23/55/70 42/56/69 15/58/71 19/57/72
s 9
f 24/59/73 25/60/74 44/61/75 43/62/76
f 44/64/75 25/63/74 26/83/77 38/84/78
s 10
f 35/65/79 34/66/80 45/67/81 46/68/82
s 11
f 28/71/83 24/72/84 43/73/85 47/74/86
f 47/78/86 32/77/87 30/75/88 28/76/83
f 34/79/89 32/80/87 47/81/86 45/82/90
s 9
f 38/85/78 39/86/91 48/87/92 44/88/75
s 10
f 46/90/82 37/89/93 36/69/94 35/70/79
f 39/91/95 37/92/93 46/93/82 48/94/96
s 12
f 6/97/97 7/98/98 46/99/99 45/100/100
s 13
f 43/102/101 16/101/102 15/129/103 42/130/104
f 17/103/105 16/104/102 43/105/101 44/106/106
s 14
f 7/107/107 9/108/108 48/109/109 46/110/110
f 48/112/109 9/111/108 11/113/111 13/114/112
f 13/115/112 17/116/113 44/117/114 48/118/109
s 12
f 40/119/115 41/120/116 45/121/100 47/122/117
f 45/124/100 41/123/116 5/95/118 6/96/97
s 13
f 42/125/104 40/126/119 47/127/120 43/128/101
