# This file uses centimeters as units for non-parametric coordinates.

mtllib 1.mtl
g default
v 0.750000 -1.500000 -1.000000
v 1.250000 -1.500000 -1.000000
v 0.750000 -1.000000 -1.000000
v 1.250000 -1.000000 -1.000000
v 0.750000 -1.000000 -1.500000
v 1.250000 -1.000000 -1.500000
v 0.750000 -1.500000 -1.500000
v 1.250000 -1.500000 -1.500000
v 0.750000 -1.500000 -0.500000
v 0.750000 -1.500000 0.000000
v 0.750000 -1.500000 0.500000
v 0.750000 -1.500000 1.000000
v 0.750000 -1.500000 1.500000
v 1.250000 -1.500000 -0.500000
v 1.250000 -1.500000 0.000000
v 1.250000 -1.500000 0.500000
v 1.250000 -1.500000 1.000000
v 1.250000 -1.500000 1.500000
v 1.250000 -1.000000 -0.500000
v 1.250000 -1.000000 0.000000
v 1.250000 -1.000000 0.500000
v 1.250000 -1.000000 1.000000
v 1.250000 -1.000000 1.500000
v 0.750000 -1.000000 -0.500000
v 0.750000 -1.000000 0.000000
v 0.750000 -1.000000 0.500000
v 0.750000 -1.000000 1.000000
v 0.750000 -1.000000 1.500000
v 0.250000 -1.500000 -1.500000
v -0.250000 -1.500000 -1.500000
v -0.750000 -1.500000 -1.500000
v -1.250000 -1.500000 -1.500000
v -1.750000 -1.500000 -1.500000
v 0.250000 -1.500000 -1.000000
v -0.250000 -1.500000 -1.000000
v -0.750000 -1.500000 -1.000000
v -1.250000 -1.500000 -1.000000
v -1.750000 -1.500000 -1.000000
v 0.250000 -1.000000 -1.000000
v -0.250000 -1.000000 -1.000000
v -0.750000 -1.000000 -1.000000
v -1.250000 -1.000000 -1.000000
v -1.750000 -1.000000 -1.000000
v 0.250000 -1.000000 -1.500000
v -0.250000 -1.000000 -1.500000
v -0.750000 -1.000000 -1.500000
v -1.250000 -1.000000 -1.500000
v -1.750000 -1.000000 -1.500000
v 0.750000 -0.500000 1.000000
v 0.750000 0.000000 1.000000
v 0.750000 0.500000 1.000000
v 0.750000 1.000000 1.000000
v 0.750000 1.500000 1.000000
v 1.250000 -0.500000 1.000000
v 1.250000 0.000000 1.000000
v 1.250000 0.500000 1.000000
v 1.250000 1.000000 1.000000
v 1.250000 1.500000 1.000000
v 0.750000 -0.500000 1.500000
v 0.750000 0.000000 1.500000
v 0.750000 0.500000 1.500000
v 0.750000 1.000000 1.500000
v 0.750000 1.500000 1.500000
v 1.250000 -0.500000 1.500000
v 1.250000 0.000000 1.500000
v 1.250000 0.500000 1.500000
v 1.250000 1.000000 1.500000
v 1.250000 1.500000 1.500000
v 1.750000 1.000000 1.500000
v 1.750000 1.500000 1.500000
vt 0.784189 0.027203
vt 0.877992 0.027203
vt 0.877992 0.121006
vt 0.784189 0.121006
vt 0.594558 0.590022
vt 0.688348 0.590022
vt 0.688348 0.683812
vt 0.594558 0.683812
vt 0.496425 0.871418
vt 0.590228 0.871418
vt 0.590228 0.965221
vt 0.496425 0.965221
vt 0.496427 0.027203
vt 0.590230 0.027203
vt 0.590230 0.121006
vt 0.496427 0.121006
vt 0.027411 0.308599
vt 0.027411 0.214796
vt 0.121214 0.214796
vt 0.121214 0.308599
vt 0.591616 0.027203
vt 0.685419 0.027203
vt 0.685419 0.121006
vt 0.591616 0.121006
vt 0.590230 0.214809
vt 0.496427 0.214809
vt 0.590230 0.308612
vt 0.496427 0.308612
vt 0.590230 0.402416
vt 0.496427 0.402416
vt 0.590230 0.496219
vt 0.496427 0.496219
vt 0.590230 0.590022
vt 0.496427 0.590022
vt 0.121214 0.402402
vt 0.027411 0.402402
vt 0.121214 0.496206
vt 0.027411 0.496206
vt 0.121214 0.590009
vt 0.027411 0.590009
vt 0.121214 0.683812
vt 0.027411 0.683812
vt 0.121214 0.777615
vt 0.027411 0.777615
vt 0.594558 0.492286
vt 0.688348 0.492286
vt 0.594558 0.398496
vt 0.688348 0.398496
vt 0.594558 0.304706
vt 0.688348 0.304706
vt 0.594558 0.210916
vt 0.688348 0.210916
vt 0.438790 0.214796
vt 0.438790 0.308599
vt 0.344987 0.308599
vt 0.344987 0.214796
vt 0.689684 0.403265
vt 0.783487 0.403265
vt 0.783487 0.497067
vt 0.689684 0.497067
vt 0.783487 0.590870
vt 0.689684 0.590870
vt 0.783487 0.684673
vt 0.689684 0.684673
vt 0.783487 0.777615
vt 0.689684 0.777615
vt 0.783487 0.871418
vt 0.689684 0.871418
vt 0.402623 0.121006
vt 0.402623 0.027203
vt 0.308820 0.121006
vt 0.308820 0.027203
vt 0.215017 0.121006
vt 0.215017 0.027203
vt 0.121214 0.121006
vt 0.121214 0.027203
vt 0.027411 0.121006
vt 0.027411 0.027203
vt 0.878786 0.027203
vt 0.972589 0.027203
vt 0.972589 0.121006
vt 0.878786 0.121006
vt 0.972589 0.214809
vt 0.878786 0.214809
vt 0.972589 0.308613
vt 0.878786 0.308613
vt 0.972589 0.402416
vt 0.878786 0.402416
vt 0.972589 0.496219
vt 0.878786 0.496219
vt 0.503925 0.683812
vt 0.503925 0.590022
vt 0.410135 0.683812
vt 0.410135 0.590022
vt 0.316345 0.683812
vt 0.316345 0.590022
vt 0.222555 0.683812
vt 0.222555 0.590022
vt 0.128765 0.683812
vt 0.128765 0.590022
vt 0.402622 0.965221
vt 0.402622 0.871418
vt 0.308819 0.965221
vt 0.308819 0.871418
vt 0.215016 0.965221
vt 0.215016 0.871418
vt 0.121214 0.965221
vt 0.121214 0.871418
vt 0.027411 0.965221
vt 0.027411 0.871418
vt 0.212730 0.574238
vt 0.122008 0.574238
vt 0.122008 0.483516
vt 0.212730 0.483516
vt 0.122008 0.392794
vt 0.212730 0.392794
vt 0.122008 0.302071
vt 0.212730 0.302071
vt 0.122008 0.211728
vt 0.212730 0.211728
vt 0.122008 0.121006
vt 0.212730 0.121006
vt 0.595194 0.871418
vt 0.595194 0.777615
vt 0.501391 0.871418
vt 0.501391 0.777615
vt 0.407589 0.871418
vt 0.407589 0.777615
vt 0.313786 0.871418
vt 0.313786 0.777615
vt 0.219984 0.871418
vt 0.219984 0.777615
vt 0.877992 0.214809
vt 0.784189 0.214809
vt 0.877992 0.308613
vt 0.784189 0.308613
vt 0.877992 0.402416
vt 0.784189 0.402416
vt 0.877992 0.496219
vt 0.784189 0.496219
vt 0.877992 0.590022
vt 0.784189 0.590022
vt 0.215017 0.683812
vt 0.215017 0.777615
vt 0.308820 0.683812
vt 0.308820 0.777615
vt 0.402623 0.683812
vt 0.402623 0.777615
vt 0.496427 0.683812
vt 0.496427 0.777615
vt 0.971795 0.496219
vt 0.971795 0.590022
vt 0.344987 0.120993
vt 0.027411 0.214796
vt 0.027411 0.120993
vt 0.121214 0.214796
vt 0.342104 0.121006
vt 0.342104 0.211728
vn 0.000000 0.000000 1.000000
vn 0.000000 0.000000 1.000000
vn 0.000000 0.000000 1.000000
vn 0.000000 -0.000000 1.000000
vn 0.000000 1.000000 0.000000
vn 0.000000 1.000000 0.000000
vn 0.000000 1.000000 0.000000
vn 0.000000 1.000000 0.000000
vn 0.000000 0.000000 -1.000000
vn 0.000001 0.000000 -1.000000
vn 0.000000 0.000000 -1.000000
vn 0.000001 0.000000 -1.000000
vn 0.000000 -1.000000 0.000000
vn 0.000000 -1.000000 0.000000
vn 0.000000 -1.000000 0.000000
vn 0.000000 -1.000000 0.000000
vn 1.000000 -0.000001 0.000000
vn 1.000000 -0.000001 0.000000
vn 1.000000 -0.000001 0.000000
vn 1.000000 -0.000001 0.000000
vn -1.000000 0.000000 0.000000
vn -1.000000 0.000000 0.000000
vn -1.000000 0.000000 0.000000
vn -1.000000 0.000000 0.000000
vn 0.000000 -1.000000 0.000000
vn 0.000000 -1.000000 0.000000
vn 0.000000 -1.000000 0.000000
vn 0.000000 -1.000000 0.000000
vn 0.000000 -1.000000 0.000000
vn 0.000000 -1.000000 0.000000
vn 0.000000 -1.000000 0.000000
vn 0.000000 -1.000000 0.000000
vn 0.000000 -1.000000 0.000000
vn 0.000000 -1.000000 0.000000
vn 0.000000 -1.000000 0.000000
vn 0.000000 -1.000000 0.000000
vn 0.000000 -1.000000 0.000000
vn 0.000000 -1.000000 0.000000
vn 0.000000 -1.000000 0.000000
vn 0.000000 -1.000000 0.000000
vn 0.000000 -1.000000 0.000000
vn 0.000000 -1.000000 0.000000
vn 0.000000 -1.000000 0.000000
vn 0.000000 -1.000000 0.000000
vn 1.000000 -0.000001 0.000000
vn 1.000000 -0.000001 0.000000
vn 1.000000 -0.000000 0.000000
vn 1.000000 -0.000000 0.000000
vn 1.000000 -0.000000 0.000000
vn 1.000000 -0.000000 0.000000
vn 1.000000 -0.000001 0.000000
vn 1.000000 -0.000001 0.000000
vn 1.000000 -0.000001 0.000000
vn 1.000000 -0.000001 0.000000
vn 1.000000 -0.000000 0.000000
vn 1.000000 -0.000000 0.000000
vn 1.000000 -0.000000 0.000000
vn 1.000000 -0.000000 0.000000
vn 1.000000 0.000000 0.000000
vn 1.000000 0.000000 0.000000
vn 1.000000 0.000000 0.000000
vn 1.000000 0.000000 0.000000
vn 1.000000 0.000000 -0.000001
vn 1.000000 0.000000 0.000000
vn 0.000000 1.000000 0.000000
vn 0.000000 1.000000 0.000000
vn 0.000000 1.000000 0.000000
vn 0.000000 1.000000 0.000000
vn 0.000000 1.000000 0.000000
vn 0.000000 1.000000 0.000000
vn 0.000000 1.000000 0.000000
vn 0.000000 1.000000 0.000000
vn 0.000000 1.000000 0.000000
vn 0.000000 1.000000 0.000000
vn -0.000000 1.000000 -0.000000
vn -0.000000 1.000000 -0.000000
vn -0.000000 1.000000 -0.000000
vn -0.000000 1.000000 -0.000000
vn -0.000000 1.000000 -0.000000
vn -0.000000 1.000000 -0.000000
vn 0.000000 1.000000 0.000000
vn 0.000000 1.000000 0.000000
vn 0.000000 1.000000 0.000000
vn 0.000000 1.000000 0.000000
vn -1.000000 0.000001 0.000000
vn -1.000000 0.000001 0.000000
vn -1.000000 0.000000 0.000000
vn -1.000000 0.000000 0.000000
vn -1.000000 0.000000 0.000000
vn -1.000000 0.000000 0.000000
vn -1.000000 0.000000 0.000000
vn -1.000000 0.000000 0.000000
vn -1.000000 0.000000 0.000000
vn -1.000000 0.000000 0.000000
vn -1.000000 0.000000 0.000000
vn -1.000000 0.000000 0.000000
vn -1.000000 0.000000 0.000000
vn -1.000000 0.000000 0.000000
vn -1.000000 0.000000 0.000000
vn -1.000000 0.000000 0.000000
vn -1.000000 0.000000 0.000000
vn -1.000000 0.000000 0.000000
vn -1.000000 0.000000 0.000000
vn -1.000000 0.000000 0.000000
vn 0.000000 -1.000000 0.000000
vn 0.000000 -1.000000 0.000000
vn 0.000000 -1.000000 0.000000
vn 0.000000 -1.000000 0.000000
vn 0.000000 -1.000000 0.000000
vn 0.000000 -1.000000 0.000000
vn 0.000000 -1.000000 0.000000
vn 0.000000 -1.000000 0.000000
vn 0.000000 -1.000000 0.000000
vn 0.000000 -1.000000 0.000000
vn 0.000000 -1.000000 0.000000
vn 0.000000 -1.000000 0.000000
vn 0.000000 -1.000000 0.000000
vn 0.000000 -1.000000 0.000000
vn 0.000000 -1.000000 0.000000
vn 0.000000 -1.000000 0.000000
vn 0.000000 -1.000000 0.000000
vn 0.000000 -1.000000 0.000000
vn 0.000000 -1.000000 0.000000
vn 0.000000 -1.000000 0.000000
vn 0.000000 0.000000 1.000000
vn 0.000000 0.000000 1.000000
vn 0.000000 -0.000000 1.000000
vn 0.000000 -0.000000 1.000000
vn 0.000000 -0.000000 1.000000
vn 0.000000 -0.000000 1.000000
vn 0.000000 0.000000 1.000000
vn 0.000000 -0.000000 1.000000
vn 0.000000 0.000000 1.000000
vn 0.000000 -0.000000 1.000000
vn 0.000000 0.000000 1.000000
vn 0.000000 0.000000 1.000000
vn 0.000000 0.000000 1.000000
vn 0.000000 0.000000 1.000000
vn 0.000000 0.000000 1.000000
vn 0.000000 0.000000 1.000000
vn 0.000000 0.000000 1.000000
vn 0.000000 0.000000 1.000000
vn 0.000000 0.000000 1.000000
vn 0.000000 0.000000 1.000000
vn 0.000000 1.000000 0.000000
vn 0.000000 1.000000 0.000000
vn -0.000000 1.000000 -0.000000
vn -0.000000 1.000000 -0.000000
vn -0.000000 1.000000 -0.000000
vn -0.000000 1.000000 -0.000000
vn -0.000000 1.000000 -0.000000
vn -0.000000 1.000000 -0.000000
vn -0.000000 1.000000 -0.000000
vn -0.000000 1.000000 -0.000000
vn 0.000000 1.000000 0.000000
vn 0.000000 1.000000 0.000000
vn 0.000000 1.000000 0.000000
vn 0.000000 1.000000 0.000000
vn 0.000000 1.000000 0.000000
vn 0.000000 1.000000 0.000000
vn 0.000000 1.000000 0.000000
vn 0.000000 1.000000 0.000000
vn 0.000000 1.000000 0.000000
vn 0.000000 1.000000 0.000000
vn 0.000000 0.000000 -1.000000
vn 0.000000 0.000000 -1.000000
vn 0.000000 -0.000001 -1.000000
vn 0.000000 -0.000001 -1.000000
vn 0.000000 -0.000001 -1.000000
vn 0.000000 -0.000001 -1.000000
vn 0.000000 -0.000001 -1.000000
vn 0.000000 -0.000001 -1.000000
vn 0.000000 -0.000001 -1.000000
vn 0.000000 -0.000001 -1.000000
vn 0.000000 0.000000 -1.000000
vn 0.000000 0.000000 -1.000000
vn 0.000000 0.000000 -1.000000
vn 0.000000 0.000000 -1.000000
vn 0.000000 0.000000 -1.000000
vn 0.000000 0.000000 -1.000000
vn 0.000000 0.000000 -1.000000
vn 0.000000 0.000000 -1.000000
vn -0.000001 0.000000 -1.000000
vn -0.000001 0.000000 -1.000000
vn -0.000000 0.000000 -1.000000
vn -0.000000 0.000000 -1.000000
vn 0.000000 0.000000 -1.000000
vn 0.000000 0.000000 -1.000000
vn 0.000000 0.000000 -1.000000
vn 0.000000 0.000000 -1.000000
vn 0.000000 0.000000 -1.000000
vn 0.000000 0.000000 -1.000000
vn 0.000000 0.000000 -1.000000
vn 0.000000 0.000000 -1.000000
vn 0.000000 0.000000 -1.000000
vn 0.000000 0.000000 -1.000000
vn 0.000000 0.000000 -1.000000
vn 0.000000 0.000000 -1.000000
vn 0.000000 0.000000 -1.000000
vn 0.000000 0.000000 -1.000000
vn 0.000000 0.000000 -1.000000
vn 0.000000 0.000000 -1.000000
vn 0.000000 0.000000 -1.000000
vn 0.000000 0.000000 -1.000000
vn -1.000000 0.000000 0.000000
vn -1.000000 0.000000 0.000000
vn -1.000000 0.000000 0.000000
vn -1.000000 0.000000 0.000000
vn -1.000000 0.000000 0.000000
vn -1.000000 0.000000 0.000000
vn -1.000000 0.000000 0.000000
vn -1.000000 0.000000 0.000000
vn -1.000000 0.000000 0.000000
vn -1.000000 0.000000 0.000000
vn -1.000000 0.000000 0.000000
vn -1.000000 0.000000 0.000000
vn -1.000000 0.000000 0.000000
vn -1.000000 0.000000 0.000000
vn -1.000000 0.000000 0.000000
vn -1.000000 0.000000 0.000000
vn -1.000000 0.000000 0.000000
vn -1.000000 0.000000 0.000000
vn -1.000000 0.000000 0.000000
vn -1.000000 0.000000 0.000000
vn 0.000000 0.000000 1.000000
vn 0.000000 -0.000000 1.000000
vn 0.000000 0.000000 1.000000
vn 0.000000 0.000000 1.000000
vn 0.000000 0.000000 1.000000
vn 0.000000 0.000000 1.000000
vn 0.000000 0.000000 1.000000
vn 0.000000 0.000000 1.000000
vn 0.000000 0.000000 1.000000
vn 0.000000 0.000000 1.000000
vn 0.000000 0.000000 1.000000
vn 0.000000 0.000000 1.000000
vn 0.000000 0.000000 1.000000
vn 0.000000 0.000000 1.000000
vn 0.000000 0.000000 1.000000
vn 0.000000 0.000000 1.000000
vn 0.000000 0.000000 1.000000
vn 0.000000 0.000000 1.000000
vn 0.000000 0.000000 1.000000
vn 0.000000 0.000000 1.000000
vn 1.000000 0.000000 0.000000
vn 1.000000 0.000000 0.000000
vn 1.000000 0.000000 0.000000
vn 1.000000 0.000000 0.000000
vn 1.000000 0.000000 0.000000
vn 1.000000 0.000000 0.000000
vn 1.000000 0.000000 0.000000
vn 1.000000 0.000000 0.000000
vn 1.000000 0.000000 0.000000
vn 1.000000 0.000000 0.000000
vn 1.000000 0.000000 -0.000001
vn 1.000000 0.000000 -0.000001
vn 1.000000 0.000000 -0.000001
vn 1.000000 0.000000 -0.000001
vn 1.000000 0.000000 -0.000001
vn 1.000000 0.000000 -0.000001
vn 0.000000 0.000000 1.000000
vn 0.000000 0.000000 1.000000
vn 0.000000 0.000000 1.000000
vn 0.000000 0.000000 1.000000
vn 0.000000 1.000000 0.000000
vn 0.000000 1.000000 0.000000
vn 0.000000 1.000000 0.000000
vn 0.000000 -1.000000 0.000000
vn 0.000000 -1.000000 0.000000
vn 0.000000 -1.000000 0.000000
vn 0.707107 0.000000 -0.707107
vn 0.707107 0.000000 -0.707107
vn 0.707107 0.000000 -0.707107
vn 0.707106 0.000000 -0.707107
s 1
g _pCube1
usemtl initialShadingGroup
f 13/1/1 18/2/2 28/4/3
f 28/4/3 18/2/2 23/3/4
s 2
f 3/5/5 4/6/6 5/8/7
f 5/8/7 4/6/6 6/7/8
s 3
f 5/9/9 6/10/10 7/12/11
f 7/12/11 6/10/10 8/11/12
s 4
f 7/13/13 8/14/14 1/16/15
f 1/16/15 8/14/14 2/15/16
s 5
f 2/17/17 8/18/18 4/20/19
f 4/20/19 8/18/18 6/19/20
s 6
f 33/21/21 38/22/22 48/24/23
f 48/24/23 38/22/22 43/23/24
s 7
f 1/16/25 2/15/26 9/26/27
f 9/26/27 2/15/26 14/25/28
s 8
f 9/26/29 14/25/30 10/28/31
f 10/28/31 14/25/30 15/27/32
s 9
f 10/28/33 15/27/34 11/30/35
f 11/30/35 15/27/34 16/29/36
s 10
f 11/30/37 16/29/38 12/32/39
f 12/32/39 16/29/38 17/31/40
s 11
f 12/32/41 17/31/42 13/34/43
f 13/34/43 17/31/42 18/33/44
s 12
f 2/17/45 4/20/46 14/36/47
f 14/36/47 4/20/46 19/35/48
s 13
f 14/36/49 19/35/50 15/38/51
f 15/38/51 19/35/50 20/37/52
s 14
f 15/38/53 20/37/54 16/40/55
f 16/40/55 20/37/54 21/39/56
s 15
f 16/40/57 21/39/58 17/42/59
f 17/42/59 21/39/58 22/41/60
s 16
f 17/42/61 22/41/62 18/44/63
f 18/44/63 22/41/62 23/43/64
s 17
f 4/6/65 3/5/66 19/46/67
f 19/46/67 3/5/66 24/45/68
s 18
f 19/46/69 24/45/70 20/48/71
f 20/48/71 24/45/70 25/47/72
s 19
f 20/48/73 25/47/74 21/50/75
f 21/50/75 25/47/74 26/49/76
s 20
f 21/50/77 26/49/78 22/52/79
f 22/52/79 26/49/78 27/51/80
s 21
f 58/53/81 53/54/82 68/56/83
f 68/56/83 53/54/82 63/55/84
s 22
f 3/57/85 1/58/86 24/60/87
f 24/60/87 1/58/86 9/59/88
s 23
f 24/60/89 9/59/90 25/62/91
f 25/62/91 9/59/90 10/61/92
s 24
f 25/62/93 10/61/94 26/64/95
f 26/64/95 10/61/94 11/63/96
s 25
f 26/64/97 11/63/98 27/66/99
f 27/66/99 11/63/98 12/65/100
s 26
f 27/66/101 12/65/102 28/68/103
f 28/68/103 12/65/102 13/67/104
s 27
f 7/13/105 1/16/106 29/70/107
f 29/70/107 1/16/106 34/69/108
s 28
f 29/70/109 34/69/110 30/72/111
f 30/72/111 34/69/110 35/71/112
s 29
f 30/72/113 35/71/114 31/74/115
f 31/74/115 35/71/114 36/73/116
s 30
f 31/74/117 36/73/118 32/76/119
f 32/76/119 36/73/118 37/75/120
s 31
f 32/76/121 37/75/122 33/78/123
f 33/78/123 37/75/122 38/77/124
s 32
f 1/79/125 3/80/126 34/82/127
f 34/82/127 3/80/126 39/81/128
s 33
f 34/82/129 39/81/130 35/84/131
f 35/84/131 39/81/130 40/83/132
s 34
f 35/84/133 40/83/134 36/86/135
f 36/86/135 40/83/134 41/85/136
s 35
f 36/86/137 41/85/138 37/88/139
f 37/88/139 41/85/138 42/87/140
s 36
f 37/88/141 42/87/142 38/90/143
f 38/90/143 42/87/142 43/89/144
s 37
f 3/5/145 5/8/146 39/92/147
f 39/92/147 5/8/146 44/91/148
s 38
f 39/92/149 44/91/150 40/94/151
f 40/94/151 44/91/150 45/93/152
s 39
f 40/94/153 45/93/154 41/96/155
f 41/96/155 45/93/154 46/95/156
s 40
f 41/96/157 46/95/158 42/98/159
f 42/98/159 46/95/158 47/97/160
s 41
f 42/98/161 47/97/162 43/100/163
f 43/100/163 47/97/162 48/99/164
s 42
f 5/9/165 7/12/166 44/102/167
f 44/102/167 7/12/166 29/101/168
s 43
f 44/102/169 29/101/170 45/104/171
f 45/104/171 29/101/170 30/103/172
s 44
f 45/104/173 30/103/174 46/106/175
f 46/106/175 30/103/174 31/105/176
s 45
f 46/106/177 31/105/178 47/108/179
f 47/108/179 31/105/178 32/107/180
s 46
f 47/108/181 32/107/182 48/110/183
f 48/110/183 32/107/182 33/109/184
s 47
f 22/111/185 27/112/186 54/114/187
f 54/114/187 27/112/186 49/113/188
s 48
f 54/114/189 49/113/190 55/116/191
f 55/116/191 49/113/190 50/115/192
s 49
f 55/116/193 50/115/194 56/118/195
f 56/118/195 50/115/194 51/117/196
s 50
f 56/118/197 51/117/198 57/120/199
f 57/120/199 51/117/198 52/119/200
s 51
f 57/120/201 52/119/202 58/122/203
f 58/122/203 52/119/202 53/121/204
s 52
f 27/66/205 28/68/206 49/124/207
f 49/124/207 28/68/206 59/123/208
s 53
f 49/124/209 59/123/210 50/126/211
f 50/126/211 59/123/210 60/125/212
s 54
f 50/126/213 60/125/214 51/128/215
f 51/128/215 60/125/214 61/127/216
s 55
f 51/128/217 61/127/218 52/130/219
f 52/130/219 61/127/218 62/129/220
s 56
f 52/130/221 62/129/222 53/132/223
f 53/132/223 62/129/222 63/131/224
s 57
f 28/4/225 23/3/226 59/134/227
f 59/134/227 23/3/226 64/133/228
s 58
f 59/134/229 64/133/230 60/136/231
f 60/136/231 64/133/230 65/135/232
s 59
f 60/136/233 65/135/234 61/138/235
f 61/138/235 65/135/234 66/137/236
s 60
f 61/138/237 66/137/238 62/140/239
f 62/140/239 66/137/238 67/139/240
s 61
f 62/140/241 67/139/242 63/142/243
f 63/142/243 67/139/242 68/141/244
s 62
f 23/43/245 22/41/246 64/144/247
f 64/144/247 22/41/246 54/143/248
s 63
f 64/144/249 54/143/250 65/146/251
f 65/146/251 54/143/250 55/145/252
s 64
f 65/146/253 55/145/254 66/148/255
f 66/148/255 55/145/254 56/147/256
s 65
f 66/148/257 56/147/258 67/150/259
f 67/150/259 56/147/258 57/149/260
s 66
f 68/141/261 67/139/262 70/152/263
f 70/152/263 67/139/262 69/151/264
s off
f 58/53/265 68/56/266 70/153/267
f 67/154/268 57/155/269 69/156/270
s 67
f 58/122/271 70/157/272 57/120/273
f 57/120/273 70/157/272 69/158/274
