# This file uses centimeters as units for non-parametric coordinates.

mtllib fork.mtl
g default
v 0.178284 0.007912 0.583561
v 0.178284 0.190935 0.583561
v -0.178284 0.007911 0.583561
v -0.178284 0.190935 0.583561
v -0.178284 0.007911 -0.583561
v -0.178284 0.190935 -0.583561
v 0.178284 0.007912 -0.583561
v 0.178284 0.190935 -0.583561
v -0.178284 0.190935 0.429785
v -0.178284 0.007911 0.429785
v 0.178284 0.007912 0.429785
v 0.178284 0.190935 0.429785
v -0.178284 0.190935 -0.439124
v -0.178284 0.007911 -0.439124
v 0.178284 0.007912 -0.439124
v 0.178284 0.190935 -0.439124
v 0.178285 2.278103 0.429785
v 0.178285 2.278103 0.583561
v -0.178285 2.278103 0.429785
v -0.178285 2.278103 0.583561
v 0.178285 2.278103 -0.439124
v -0.178285 2.278103 -0.439124
v 0.178285 2.278103 -0.583561
v -0.178285 2.278103 -0.583561
vt 0.375000 0.000000
vt 0.625000 0.000000
vt 0.375000 0.250000
vt 0.625000 0.250000
vt 0.375000 0.500000
vt 0.625000 0.500000
vt 0.375000 0.750000
vt 0.625000 0.750000
vt 0.375000 1.000000
vt 0.625000 1.000000
vt 0.875000 0.000000
vt 0.875000 0.250000
vt 0.125000 0.000000
vt 0.125000 0.250000
vt 0.625000 0.282939
vt 0.657939 0.250000
vt 0.342061 0.250000
vt 0.375000 0.282939
vt 0.342061 0.000000
vt 0.375000 0.967061
vt 0.625000 0.967061
vt 0.657939 0.000000
vt 0.625000 0.469061
vt 0.844061 0.250000
vt 0.155939 0.250000
vt 0.375000 0.469061
vt 0.155939 0.000000
vt 0.375000 0.780939
vt 0.625000 0.780939
vt 0.844061 0.000000
vt 0.625000 0.000000
vt 0.657939 0.000000
vt 0.657939 0.250000
vt 0.625000 0.250000
vt 0.844061 0.250000
vt 0.844061 0.000000
vt 0.875000 0.000000
vt 0.875000 0.250000
vn 0.000000 0.000000 1.000000
vn 0.000000 0.000000 1.000000
vn 0.000000 0.000000 1.000000
vn 0.000000 0.000000 1.000000
vn -1.000000 0.000000 0.000000
vn -1.000000 0.000000 0.000000
vn -1.000000 0.000000 0.000000
vn -1.000000 0.000000 0.000000
vn 0.000000 0.000000 -1.000000
vn 0.000000 0.000000 -1.000000
vn 0.000000 0.000000 -1.000000
vn 0.000000 0.000000 -1.000000
vn 1.000000 0.000000 0.000000
vn 1.000000 0.000000 0.000000
vn 1.000000 0.000000 0.000000
vn 1.000000 0.000000 0.000000
vn 0.000000 1.000000 0.000000
vn 0.000000 1.000000 0.000000
vn 0.000000 1.000000 0.000000
vn 0.000000 1.000000 0.000000
vn 0.000000 -1.000000 0.000000
vn 0.000000 -1.000000 0.000000
vn 0.000000 -1.000000 0.000000
vn 0.000000 -1.000000 0.000000
vn -1.000000 0.000000 0.000000
vn -1.000000 0.000000 0.000000
vn 0.000000 -1.000000 0.000000
vn 0.000000 -1.000000 0.000000
vn 1.000000 0.000000 0.000000
vn 1.000000 0.000000 0.000000
vn -0.000000 1.000000 0.000000
vn -0.000000 1.000000 0.000000
vn -0.000000 1.000000 0.000000
vn -0.000000 1.000000 0.000000
vn -1.000000 0.000000 0.000000
vn -1.000000 0.000000 0.000000
vn 0.000000 -1.000000 0.000000
vn 0.000000 -1.000000 0.000000
vn 1.000000 0.000000 0.000000
vn 1.000000 0.000000 0.000000
vn 0.000000 1.000000 0.000000
vn 0.000000 1.000000 0.000000
vn 0.000000 1.000000 0.000000
vn 0.000000 1.000000 0.000000
vn 1.000000 -0.000000 0.000000
vn 1.000000 -0.000000 0.000000
vn 1.000000 -0.000000 0.000000
vn 1.000000 -0.000000 0.000000
vn 0.000000 0.000000 -1.000000
vn 0.000000 0.000000 -1.000000
vn 0.000000 0.000000 -1.000000
vn 0.000000 0.000000 -1.000000
vn -1.000000 -0.000000 0.000000
vn -1.000000 -0.000000 0.000000
vn -1.000000 -0.000000 0.000000
vn -1.000000 -0.000000 0.000000
vn 0.000000 0.000000 1.000000
vn 0.000000 0.000000 1.000000
vn 0.000000 0.000000 1.000000
vn 0.000000 0.000000 1.000000
vn 0.000000 0.000000 1.000000
vn 0.000000 0.000000 1.000000
vn 0.000000 0.000000 1.000000
vn 0.000000 0.000000 1.000000
vn 1.000000 -0.000000 0.000000
vn 1.000000 -0.000000 0.000000
vn 1.000000 -0.000000 0.000000
vn 1.000000 -0.000000 0.000000
vn 0.000000 0.000000 -1.000000
vn 0.000000 0.000000 -1.000000
vn 0.000000 0.000000 -1.000000
vn 0.000000 0.000000 -1.000000
vn -1.000000 -0.000000 0.000000
vn -1.000000 -0.000000 0.000000
vn -1.000000 -0.000000 0.000000
vn -1.000000 -0.000000 0.000000
s off
g pCube1
usemtl initialShadingGroup
f 1/1/1 2/2/2 4/4/3 3/3/4
s 1
f 3/3/5 4/4/6 9/15/7 10/18/8
s off
f 5/5/9 6/6/10 8/8/11 7/7/12
s 2
f 11/20/13 12/21/14 2/10/15 1/9/16
s off
f 18/31/17 17/32/18 19/33/19 20/34/20
s 3
f 11/19/21 1/1/22 3/3/23 10/17/24
s 1
f 10/18/8 9/15/7 13/23/25 14/26/26
s 3
f 15/27/27 11/19/21 10/17/24 14/25/28
s 2
f 15/28/29 16/29/30 12/21/14 11/20/13
s off
f 9/16/31 12/22/32 16/30/33 13/24/34
s 1
f 14/26/26 13/23/25 6/6/35 5/5/36
s 3
f 7/13/37 15/27/27 14/25/28 5/14/38
s 2
f 7/7/39 8/8/40 16/29/30 15/28/29
s off
f 22/35/41 21/36/42 23/37/43 24/38/44
f 2/2/45 12/22/46 17/32/47 18/31/48
f 12/22/49 9/16/50 19/33/51 17/32/52
f 9/16/53 4/4/54 20/34/55 19/33/56
f 4/4/57 2/2/58 18/31/59 20/34/60
f 13/24/61 16/30/62 21/36/63 22/35/64
f 16/30/65 8/11/66 23/37/67 21/36/68
f 8/11/69 6/12/70 24/38/71 23/37/72
f 6/12/73 13/24/74 22/35/75 24/38/76
