# This file uses centimeters as units for non-parametric coordinates.

mtllib gear1.mtl
g default
v -0.432411 -0.225293 1.043933
v -0.502596 -0.225293 1.213374
v -0.928677 -0.225293 0.928676
v -0.798992 -0.225293 0.798991
v 0.798992 -0.225293 -0.798991
v 0.928677 -0.225293 -0.928676
v 1.213375 -0.225293 -0.502595
v 1.043933 -0.225293 -0.432410
v -0.928677 0.225293 0.928676
v -1.052037 -0.185509 1.272948
v -1.052037 0.185509 1.272948
v -0.773454 -0.185509 1.459092
v 0.928677 0.225293 -0.928676
v 1.213375 0.225293 -0.502595
v -0.773454 0.185509 1.459092
v 0.798992 -0.225293 -0.798991
v 1.043933 0.225293 -0.432410
v 0.798992 0.225293 -0.798991
v 0.798992 0.225293 -0.798991
v -0.798992 0.225293 0.798991
v -0.502596 0.225293 1.213374
v -0.432411 0.225293 1.043933
v 1.313347 -0.225293 0.000000
v 1.129945 -0.225293 0.000000
v -0.000000 -0.225293 1.129945
v -0.432411 -0.225293 1.043933
v -0.432411 0.225293 1.043933
v -0.000000 0.225293 1.129945
v 1.129945 0.225293 0.000000
v 1.578649 0.185509 -0.484818
v 1.578649 -0.185509 -0.484818
v 1.644013 -0.185509 -0.156208
v -0.000000 -0.225293 1.313347
v -0.000000 0.225293 1.313347
v 1.313347 0.225293 0.000000
v 0.432411 -0.225293 1.043933
v 0.502596 -0.225293 1.213374
v -0.798992 -0.225293 0.798991
v -0.798992 0.225293 0.798991
v 1.644013 0.185509 -0.156208
v 1.043933 -0.225293 0.432411
v 1.043933 0.225293 0.432411
v 1.213374 -0.225293 0.502596
v 1.213374 0.225293 0.502596
v 0.484819 -0.185509 1.578649
v 0.156208 -0.185509 1.644013
v 0.156208 0.185509 1.644013
v 0.502596 0.225293 1.213374
v 0.432411 0.225293 1.043933
v 0.928676 -0.225293 0.928677
v 0.928676 0.225293 0.928677
v 1.459092 -0.185509 0.773454
v 1.272949 -0.185509 1.052037
v 1.043933 -0.225293 0.432411
v 0.484819 0.185509 1.578649
v 1.459092 0.185509 0.773454
v 1.272949 0.185509 1.052037
v 0.432411 -0.225293 1.043933
v 0.798991 -0.225293 0.798992
v 0.798991 -0.225293 0.798992
v 1.043933 0.225293 0.432411
v 0.798991 0.225293 0.798992
v 0.432411 0.225293 1.043933
v 0.798991 0.225293 0.798992
v 0.502597 0.225293 -1.213374
v 0.432412 0.225293 -1.043932
v -1.213374 0.225293 0.502596
v -1.043933 0.225293 0.432411
v 1.052038 -0.185509 -1.272948
v 1.052038 0.185509 -1.272948
v 0.773455 0.185509 -1.459092
v 0.432412 -0.225293 -1.043932
v -1.043933 -0.225293 0.432411
v -1.213374 -0.225293 0.502596
v 0.773455 -0.185509 -1.459092
v 0.502597 -0.225293 -1.213374
v 0.000001 0.225293 -1.313347
v 0.000001 0.225293 -1.129944
v -1.129945 0.225293 -0.000000
v -1.313347 0.225293 -0.000000
v 0.000001 -0.225293 -1.129944
v -1.129945 -0.225293 -0.000000
v -1.578649 0.185509 0.484819
v -1.578649 -0.185509 0.484819
v -1.644013 0.185509 0.156208
v 0.000001 -0.225293 -1.313347
v -1.313347 -0.225293 -0.000000
v -0.502595 0.225293 -1.213375
v -0.432410 0.225293 -1.043933
v -1.043932 0.225293 -0.432411
v -1.213374 0.225293 -0.502597
v -1.644013 -0.185509 0.156208
v -1.213374 -0.225293 -0.502597
v -0.156207 0.185509 -1.644013
v -0.484818 0.185509 -1.578649
v -0.798991 -0.225293 -0.798992
v -0.432411 -0.225293 -1.043933
v -0.432411 0.225293 -1.043933
v -0.798991 0.225293 -0.798992
v -0.156207 -0.185509 -1.644013
v -0.432410 -0.225293 -1.043933
v -0.502595 -0.225293 -1.213375
v -1.043932 -0.225293 -0.432411
v -0.928676 -0.225293 -0.928677
v -0.928676 0.225293 -0.928677
v -1.272948 0.185509 -1.052038
v -1.459092 0.185509 -0.773455
v -0.484818 -0.185509 -1.578649
v -1.459092 -0.185509 -0.773455
v -1.272948 -0.185509 -1.052038
v -1.043932 0.225293 -0.432411
v -0.798991 0.225293 -0.798992
v -0.798991 -0.225293 -0.798992
v -1.043932 -0.225293 -0.432411
vt 0.448556 0.279575
vt 0.440206 0.300606
vt 0.389515 0.266735
vt 0.404943 0.250434
vt 0.595057 0.060321
vt 0.610485 0.045765
vt 0.644356 0.096456
vt 0.624198 0.103933
vt 0.515625 0.688440
vt 0.515625 0.312500
vt 0.515625 0.312500
vt 0.515625 0.688440
vt 0.531250 0.312500
vt 0.531250 0.312500
vt 0.375000 0.312500
vt 0.390625 0.312500
vt 0.390625 0.688440
vt 0.375000 0.688440
vt 0.531250 0.688440
vt 0.390625 0.462992
vt 0.390625 0.462992
vt 0.375000 0.462992
vt 0.375000 0.537948
vt 0.390625 0.537948
vt 0.390625 0.537948
vt 0.404943 0.747820
vt 0.389515 0.733265
vt 0.440206 0.699394
vt 0.448556 0.718680
vt 0.624198 0.894322
vt 0.644356 0.903544
vt 0.610485 0.954235
vt 0.595057 0.937934
vt 0.531250 0.688440
vt 0.656250 0.156250
vt 0.634430 0.155377
vt 0.546875 0.462992
vt 0.531250 0.462992
vt 0.531250 0.537948
vt 0.546875 0.537948
vt 0.625000 0.462992
vt 0.609375 0.462992
vt 0.609375 0.537948
vt 0.625000 0.537948
vt 0.625000 0.312500
vt 0.625000 0.688440
vt 0.625000 0.688440
vt 0.625000 0.312500
vt 0.609375 0.312500
vt 0.609375 0.312500
vt 0.546875 0.312500
vt 0.546875 0.688440
vt 0.500000 0.312500
vt 0.448556 0.279575
vt 0.500000 0.289808
vt 0.634430 0.842877
vt 0.656250 0.843750
vt 0.551444 0.279575
vt 0.559794 0.300606
vt 0.531250 0.462992
vt 0.515625 0.462992
vt 0.515625 0.462992
vt 0.515625 0.537948
vt 0.515625 0.537948
vt 0.531250 0.537948
vt 0.609375 0.688440
vt 0.593750 0.462992
vt 0.593750 0.537948
vt 0.609375 0.688440
vt 0.593750 0.312500
vt 0.593750 0.688440
vt 0.562500 0.312500
vt 0.562500 0.312500
vt 0.546875 0.312500
vt 0.546875 0.688440
vt 0.500000 0.708447
vt 0.500000 0.687500
vt 0.559794 0.699394
vt 0.551444 0.718680
vt 0.448556 0.718680
vt 0.578125 0.312500
vt 0.578125 0.688440
vt 0.562500 0.688440
vt 0.593750 0.312500
vt 0.578125 0.312500
vt 0.644356 0.216044
vt 0.624198 0.206822
vt 0.624198 0.206822
vt 0.562500 0.688440
vt 0.593750 0.688440
vt 0.578125 0.688440
vt 0.610485 0.266735
vt 0.551444 0.279575
vt 0.595057 0.250434
vt 0.595057 0.250434
vt 0.644356 0.783956
vt 0.624198 0.791433
vt 0.624198 0.791433
vt 0.610485 0.733265
vt 0.595057 0.747821
vt 0.551444 0.718680
vt 0.595057 0.747821
vt 0.562500 0.462992
vt 0.562500 0.462992
vt 0.562500 0.537948
vt 0.562500 0.537948
vt 0.593750 0.462992
vt 0.578125 0.462992
vt 0.578125 0.537948
vt 0.593750 0.537948
vt 0.578125 0.462992
vt 0.578125 0.537948
vt 0.559794 0.988106
vt 0.551444 0.967075
vt 0.595057 0.937934
vt 0.355644 0.783956
vt 0.404943 0.747820
vt 0.375802 0.791433
vt 0.390625 0.312500
vt 0.390625 0.688440
vt 0.406250 0.688440
vt 0.406250 0.688440
vt 0.406250 0.462992
vt 0.406250 0.537948
vt 0.500000 0.462992
vt 0.500000 0.537948
vt 0.500000 0.312500
vt 0.500000 0.688440
vt 0.406250 0.312500
vt 0.406250 0.312500
vt 0.500000 1.000000
vt 0.500000 0.977308
vt 0.365570 0.842877
vt 0.343750 0.843750
vt 0.559794 0.011894
vt 0.595057 0.060321
vt 0.551444 0.031180
vt 0.355644 0.216044
vt 0.375802 0.206822
vt 0.404943 0.250434
vt 0.421875 0.462992
vt 0.421875 0.537948
vt 0.484375 0.462992
vt 0.484375 0.537948
vt 0.500000 0.688440
vt 0.500000 0.312500
vt 0.484375 0.688440
vt 0.484375 0.688440
vt 0.421875 0.312500
vt 0.421875 0.688440
vt 0.500000 0.020947
vt 0.500000 0.000000
vt 0.343750 0.156250
vt 0.365570 0.155377
vt 0.440206 0.988106
vt 0.448556 0.967075
vt 0.375802 0.894322
vt 0.355644 0.903544
vt 0.484375 0.312500
vt 0.484375 0.312500
vt 0.468750 0.312500
vt 0.468750 0.688440
vt 0.437500 0.688440
vt 0.421875 0.688440
vt 0.437500 0.688440
vt 0.453125 0.462992
vt 0.437500 0.462992
vt 0.437500 0.537948
vt 0.453125 0.537948
vt 0.421875 0.312500
vt 0.448556 0.031180
vt 0.440206 0.011894
vt 0.355644 0.096456
vt 0.375802 0.103933
vt 0.437500 0.312500
vt 0.453125 0.312500
vt 0.453125 0.688440
vt 0.453125 0.688440
vt 0.468750 0.688440
vt 0.437500 0.312500
vt 0.468750 0.312500
vt 0.453125 0.312500
vt 0.389515 0.954235
vt 0.375802 0.894322
vt 0.404943 0.937934
vt 0.389515 0.045765
vt 0.404943 0.060320
vt 0.375802 0.103933
vt 0.437500 0.462992
vt 0.437500 0.537948
vt 0.468750 0.462992
vt 0.468750 0.462992
vt 0.468750 0.537948
vt 0.468750 0.537948
vt 0.404943 0.937934
vt 0.448556 0.967075
vt 0.453125 0.462992
vt 0.453125 0.537948
vt 0.448556 0.031180
vt 0.404943 0.060320
vn 0.000000 -1.000000 -0.000000
vn -0.028524 -0.998681 0.042689
vn -0.028524 -0.998681 0.042689
vn 0.000000 -1.000000 0.000000
vn 0.000000 -1.000000 -0.000000
vn 0.028524 -0.998681 -0.042689
vn 0.050356 -0.998681 -0.010016
vn 0.000000 -1.000000 -0.000000
vn -0.941389 0.000000 -0.337322
vn -0.941389 0.000000 -0.337322
vn -0.941389 0.000000 -0.337322
vn -0.941389 0.000000 -0.337322
vn -0.061910 -0.993772 0.092655
vn -0.061910 -0.993772 0.092655
vn 0.831470 0.000000 -0.555570
vn 0.831470 0.000000 -0.555570
vn 0.831470 0.000000 -0.555570
vn 0.831470 0.000000 -0.555570
vn -0.555571 0.000000 0.831469
vn -0.555571 0.000000 0.831469
vn -0.555571 0.000000 0.831469
vn -0.555571 0.000000 0.831469
vn -0.707107 -0.000000 0.707106
vn -0.831470 -0.000000 0.555570
vn -0.923880 -0.000000 0.382683
vn -0.923880 -0.000000 0.382683
vn -0.831470 -0.000000 0.555570
vn -0.707107 -0.000000 0.707106
vn 0.000000 1.000000 0.000000
vn -0.028524 0.998681 0.042689
vn -0.028524 0.998681 0.042689
vn 0.000000 1.000000 -0.000000
vn 0.000000 1.000000 -0.000000
vn 0.050356 0.998681 -0.010016
vn 0.028524 0.998681 -0.042689
vn 0.000000 1.000000 -0.000000
vn -0.061910 0.993772 0.092655
vn -0.061910 0.993772 0.092655
vn 0.671899 0.000000 0.740643
vn 0.671899 0.000000 0.740643
vn 0.671899 0.000000 0.740643
vn 0.671899 0.000000 0.740643
vn 0.050356 -0.998681 -0.010016
vn 0.000000 -1.000000 -0.000000
vn 0.000000 0.000000 -1.000000
vn 0.382684 0.000000 -0.923879
vn 0.382684 0.000000 -0.923879
vn 0.000000 0.000000 -1.000000
vn -1.000000 0.000000 -0.000000
vn -1.000000 0.000000 -0.000000
vn 0.048610 0.000000 -0.998818
vn 0.048610 0.000000 -0.998818
vn 0.048610 0.000000 -0.998818
vn 0.048610 0.000000 -0.998818
vn 0.109294 -0.993772 -0.021740
vn 0.109294 -0.993772 -0.021740
vn -0.195090 0.000000 0.980785
vn -0.195090 0.000000 0.980785
vn -0.195090 0.000000 0.980785
vn -0.195090 0.000000 0.980785
vn 0.010016 -0.998681 0.050356
vn 0.000000 -1.000000 -0.000000
vn 0.000000 -1.000000 -0.000000
vn 0.000000 1.000000 0.000000
vn 0.050356 0.998681 -0.010016
vn 0.000000 -1.000000 0.000000
vn 0.010016 -0.998681 0.050356
vn 0.555570 0.000000 -0.831470
vn 0.555570 0.000000 -0.831470
vn 0.707107 0.000000 -0.707107
vn 0.707107 0.000000 -0.707107
vn 0.555570 0.000000 -0.831470
vn 0.555570 0.000000 -0.831470
vn 0.980785 0.000000 -0.195090
vn 0.980785 0.000000 -0.195090
vn 0.980785 0.000000 -0.195090
vn 0.980785 0.000000 -0.195090
vn -0.923880 0.000000 -0.382684
vn -0.923880 0.000000 -0.382684
vn 0.109294 0.993772 -0.021740
vn 0.109294 0.993772 -0.021740
vn 0.427141 0.000000 0.904185
vn 0.427141 0.000000 0.904185
vn 0.427141 0.000000 0.904185
vn 0.427141 0.000000 0.904185
vn 0.980785 0.000000 0.195090
vn 0.980785 0.000000 0.195090
vn 0.980785 0.000000 0.195090
vn 0.980785 0.000000 0.195090
vn 0.021740 -0.993772 0.109294
vn 0.021740 -0.993772 0.109294
vn -0.904185 0.000000 0.427140
vn -0.904185 0.000000 0.427140
vn -0.904185 0.000000 0.427140
vn -0.904185 0.000000 0.427140
vn 0.000000 1.000000 -0.000000
vn 0.010016 0.998681 0.050356
vn 0.010016 0.998681 0.050356
vn 0.000000 1.000000 0.000000
vn 0.000000 1.000000 -0.000000
vn 0.555570 0.000000 0.831470
vn 0.555570 0.000000 0.831470
vn 0.555570 0.000000 0.831470
vn 0.555570 0.000000 0.831470
vn 0.042689 -0.998681 0.028524
vn 0.042689 -0.998681 0.028524
vn 0.092655 -0.993772 0.061910
vn 0.092655 -0.993772 0.061910
vn 0.000000 -1.000000 0.000000
vn 0.000000 -1.000000 -0.000000
vn 0.998818 0.000000 0.048610
vn 0.998818 0.000000 0.048610
vn 0.998818 0.000000 0.048610
vn 0.998818 0.000000 0.048610
vn 0.021740 0.993772 0.109294
vn 0.021740 0.993772 0.109294
vn 0.195090 0.000000 0.980785
vn 0.195090 0.000000 0.980785
vn 0.195090 0.000000 0.980785
vn 0.195090 0.000000 0.980785
vn 0.740643 0.000000 -0.671898
vn 0.740643 0.000000 -0.671898
vn 0.740643 0.000000 -0.671898
vn 0.740643 0.000000 -0.671898
vn -0.337321 0.000000 0.941390
vn -0.337321 0.000000 0.941390
vn -0.337321 0.000000 0.941390
vn -0.337321 0.000000 0.941390
vn 0.000000 -1.000000 0.000000
vn 0.000000 -1.000000 0.000000
vn 0.000000 -0.000000 0.000000
vn 0.042689 0.998681 0.028524
vn 0.042689 0.998681 0.028524
vn 0.092655 0.993772 0.061910
vn 0.092655 0.993772 0.061910
vn 0.831470 0.000000 0.555570
vn 0.831470 0.000000 0.555570
vn 0.831470 0.000000 0.555570
vn 0.831470 0.000000 0.555570
vn 0.000000 1.000000 0.000000
vn 0.000000 1.000000 0.000000
vn 0.000000 1.000000 -0.000000
vn 0.000000 1.000000 -0.000000
vn 0.000000 0.000000 0.000000
vn -0.382683 0.000000 -0.923880
vn -0.195090 0.000000 -0.980785
vn -0.195090 0.000000 -0.980785
vn -0.382683 0.000000 -0.923880
vn -0.831470 0.000000 -0.555570
vn -0.831470 0.000000 -0.555570
vn -0.831470 0.000000 -0.555570
vn -0.831470 0.000000 -0.555570
vn -0.000000 0.000000 -0.000000
vn -0.000000 0.000000 -0.000000
vn 0.028524 0.998681 -0.042689
vn 0.000000 1.000000 -0.000000
vn 0.000000 1.000000 -0.000000
vn -0.050356 0.998681 0.010016
vn 0.000000 1.000000 0.000000
vn 0.000000 1.000000 0.000000
vn 0.941389 0.000000 0.337322
vn 0.941389 0.000000 0.337322
vn 0.941389 0.000000 0.337322
vn 0.941389 0.000000 0.337322
vn 0.061910 0.993772 -0.092655
vn 0.061910 0.993772 -0.092655
vn -0.382684 0.000000 0.923879
vn -0.382684 0.000000 0.923879
vn 0.923880 0.000000 -0.382683
vn 0.923880 0.000000 -0.382683
vn -0.831470 0.000000 0.555570
vn -0.831470 0.000000 0.555570
vn -0.831470 0.000000 0.555570
vn -0.831470 0.000000 0.555570
vn 0.555571 0.000000 -0.831469
vn 0.555571 0.000000 -0.831469
vn 0.555571 0.000000 -0.831469
vn 0.555571 0.000000 -0.831469
vn 0.028524 -0.998681 -0.042689
vn 0.061910 -0.993772 -0.092655
vn 0.061910 -0.993772 -0.092655
vn -0.671898 0.000000 -0.740644
vn -0.671898 0.000000 -0.740644
vn -0.671898 0.000000 -0.740644
vn -0.671898 0.000000 -0.740644
vn -0.010016 0.998681 -0.050356
vn 0.000000 1.000000 -0.000000
vn 0.000000 1.000000 -0.000000
vn -0.050356 0.998681 0.010016
vn 0.000000 -1.000000 -0.000000
vn 0.000000 -1.000000 -0.000000
vn -0.050356 -0.998681 0.010016
vn 0.000000 -1.000000 0.000000
vn 0.000000 -1.000000 0.000000
vn -0.000001 0.000000 1.000000
vn -0.000001 0.000000 1.000000
vn 1.000000 0.000000 0.000000
vn 1.000000 0.000000 0.000000
vn -0.048610 0.000000 0.998818
vn -0.048610 0.000000 0.998818
vn -0.048610 0.000000 0.998818
vn -0.048610 0.000000 0.998818
vn -0.109294 0.993772 0.021740
vn -0.109294 0.993772 0.021740
vn 0.195091 0.000000 -0.980785
vn 0.195091 0.000000 -0.980785
vn 0.195091 0.000000 -0.980785
vn 0.195091 0.000000 -0.980785
vn 0.000000 -1.000000 0.000000
vn -0.010016 -0.998681 -0.050356
vn -0.050356 -0.998681 0.010016
vn 0.000000 -1.000000 -0.000000
vn -0.010016 0.998681 -0.050356
vn 0.000000 1.000000 -0.000000
vn 0.000000 1.000000 -0.000000
vn -0.042689 0.998681 -0.028524
vn -0.980785 0.000000 0.195090
vn -0.980785 0.000000 0.195090
vn -0.980785 0.000000 0.195090
vn -0.980785 0.000000 0.195090
vn -0.109294 -0.993772 0.021740
vn -0.109294 -0.993772 0.021740
vn -0.427141 0.000000 -0.904185
vn -0.427141 0.000000 -0.904185
vn -0.427141 0.000000 -0.904185
vn -0.427141 0.000000 -0.904185
vn -0.980785 0.000000 -0.195091
vn -0.980785 0.000000 -0.195091
vn -0.980785 0.000000 -0.195091
vn -0.980785 0.000000 -0.195091
vn -0.021740 0.993772 -0.109294
vn -0.021740 0.993772 -0.109294
vn 0.555570 0.000000 0.831470
vn 0.382683 0.000000 0.923880
vn 0.382683 0.000000 0.923880
vn 0.555570 0.000000 0.831470
vn 0.904186 0.000000 -0.427140
vn 0.904186 0.000000 -0.427140
vn 0.904186 0.000000 -0.427140
vn 0.904186 0.000000 -0.427140
vn 0.000000 -1.000000 -0.000000
vn -0.010016 -0.998681 -0.050356
vn -0.042689 -0.998681 -0.028524
vn 0.000000 -1.000000 -0.000000
vn -0.555570 0.000000 -0.831470
vn -0.555570 0.000000 -0.831470
vn -0.555570 0.000000 -0.831470
vn -0.555570 0.000000 -0.831470
vn -0.042689 0.998681 -0.028524
vn -0.092655 0.993772 -0.061910
vn -0.092655 0.993772 -0.061910
vn -0.998818 0.000000 -0.048611
vn -0.998818 0.000000 -0.048611
vn -0.998818 0.000000 -0.048611
vn -0.998818 0.000000 -0.048611
vn -0.021740 -0.993772 -0.109294
vn -0.021740 -0.993772 -0.109294
vn -0.195089 0.000000 -0.980785
vn -0.195089 0.000000 -0.980785
vn -0.195089 0.000000 -0.980785
vn -0.195089 0.000000 -0.980785
vn -0.740644 0.000000 0.671898
vn -0.740644 0.000000 0.671898
vn -0.740644 0.000000 0.671898
vn -0.740644 0.000000 0.671898
vn 0.337322 0.000000 -0.941389
vn 0.337322 0.000000 -0.941389
vn 0.337322 0.000000 -0.941389
vn 0.337322 0.000000 -0.941389
vn 0.000000 1.000000 -0.000000
vn 0.000000 1.000000 -0.000000
vn -0.042689 -0.998681 -0.028524
vn -0.092655 -0.993772 -0.061910
vn -0.092655 -0.993772 -0.061910
vn -0.831469 0.000000 -0.555571
vn -0.831469 0.000000 -0.555571
vn -0.831469 0.000000 -0.555571
vn -0.831469 0.000000 -0.555571
vn 0.000000 -1.000000 -0.000000
vn 0.000000 -1.000000 -0.000000
vn 0.195090 0.000000 0.980785
vn 0.195090 0.000000 0.980785
vn 0.980785 0.000000 0.195091
vn 0.923879 0.000000 0.382684
vn 0.923879 0.000000 0.382684
vn 0.980785 0.000000 0.195091
vn 0.000000 0.000000 -0.000000
vn 0.000000 1.000000 -0.000000
vn 0.000000 0.000000 0.000000
vn 0.000000 0.000000 0.000000
vn 0.000000 -1.000000 -0.000000
vn 0.000000 -0.000000 -0.000000
s 1
g pCylinder3
usemtl initialShadingGroup
f 1/1/1 2/2/2 3/3/3 4/4/4
f 5/5/5 6/6/6 7/7/7 8/8/8
s off
f 9/9/9 3/10/10 10/11/11 11/12/12
s 1
f 3/10/3 2/13/2 12/14/13 10/11/14
s off
f 7/15/15 6/16/16 13/17/17 14/18/18
f 10/11/19 12/14/20 15/19/21 11/12/22
s 3
f 16/20/23 5/21/24 8/22/25 17/23/26 18/24/27 19/25/28
s 4
f 20/26/29 9/27/30 21/28/31 22/29/32
f 17/30/33 14/31/34 13/32/35 18/33/36
f 21/34/31 9/9/30 11/12/37 15/19/38
s off
f 2/13/39 21/34/40 15/19/41 12/14/42
s 1
f 8/8/8 7/7/7 23/35/43 24/36/44
s 3
f 25/37/45 26/38/46 27/39/47 28/40/48
f 8/41/25 24/42/49 29/43/50 17/44/26
s off
f 7/45/51 14/46/52 30/47/53 31/48/54
s 1
f 23/49/43 7/45/7 31/48/55 32/50/56
s off
f 2/13/57 33/51/58 34/52/59 21/34/60
s 1
f 33/53/61 2/2/2 1/1/1 26/54/62 25/55/63
s 4
f 29/56/64 35/57/65 14/31/34 17/30/33
s 1
f 36/58/66 37/59/67 33/53/61 25/55/63
s 3
f 26/38/46 1/60/68 4/61/69 38/62/70 39/63/71 20/64/72 22/65/73 27/39/47
s off
f 32/50/74 31/48/75 30/47/76 40/66/77
s 3
f 24/42/49 41/67/78 42/68/79 29/43/50
s 4
f 14/46/34 35/69/65 40/66/80 30/47/81
s off
f 35/69/82 23/49/83 32/50/84 40/66/85
f 43/70/86 23/49/87 35/69/88 44/71/89
s 1
f 33/51/61 37/72/67 45/73/90 46/74/91
s off
f 34/52/92 33/51/93 46/74/94 47/75/95
s 4
f 28/76/96 34/77/97 48/78/98 49/79/99
f 21/28/31 34/77/97 28/76/96 27/80/100 22/29/32
s off
f 37/72/101 50/81/102 51/82/103 48/83/104
s 1
f 50/81/105 43/70/106 52/84/107 53/85/108
f 23/35/43 43/86/106 54/87/109 41/88/110 24/36/44
s off
f 37/72/111 48/83/112 55/89/113 45/73/114
s 4
f 48/83/98 34/52/97 47/75/115 55/89/116
s off
f 46/74/117 45/73/118 55/89/119 47/75/120
f 43/70/121 44/71/122 56/90/123 52/84/124
f 51/82/125 50/81/126 53/85/127 57/91/128
s 1
f 50/92/105 37/59/67 36/58/66 58/93/129 59/94/130
f 43/86/106 50/92/105 59/94/130 60/95/131 54/87/109
s 4
f 44/71/132 51/82/133 57/91/134 56/90/135
s off
f 53/85/136 52/84/137 56/90/138 57/91/139
s 4
f 44/96/132 35/57/65 29/56/64 42/97/140 61/98/141
f 48/78/98 51/99/133 62/100/142 63/101/143 49/79/99
f 51/99/133 44/96/132 61/98/141 64/102/144 62/100/142
s 3
f 58/103/145 36/104/146 25/37/45 28/40/48 49/105/147 63/106/148
f 41/67/78 54/107/149 60/108/150 64/109/151 61/110/152 42/68/79
f 60/108/150 59/111/153 58/103/145 63/106/148 62/112/154 64/109/151
s 4
f 13/32/35 65/113/155 66/114/156 19/115/157 18/33/36
f 67/116/158 9/27/30 20/26/29 39/117/159 68/118/160
s off
f 13/17/161 6/16/162 69/119/163 70/120/164
s 4
f 65/121/155 13/17/35 70/120/165 71/122/166
s 3
f 72/123/167 16/20/23 19/25/28 66/124/168
f 38/62/70 73/125/169 68/126/170 39/63/71
s off
f 74/127/171 3/10/172 9/9/173 67/128/174
f 69/119/175 75/129/176 71/122/177 70/120/178
s 1
f 6/16/6 76/130/179 75/129/180 69/119/181
s off
f 76/130/182 65/121/183 71/122/184 75/129/185
s 4
f 66/114/156 65/113/155 77/131/186 78/132/187
f 79/133/188 80/134/189 67/116/158 68/118/160
s 1
f 76/135/179 6/6/6 5/5/5 16/136/190 72/137/191
f 3/3/3 74/138/192 73/139/193 38/140/194 4/4/4
s 3
f 81/141/195 72/123/167 66/124/168 78/142/196
f 73/125/169 82/143/197 79/144/198 68/126/170
s off
f 74/127/199 67/128/200 83/145/201 84/146/202
s 4
f 67/128/158 80/147/189 85/148/203 83/145/204
s off
f 76/130/205 86/149/206 77/150/207 65/121/208
s 1
f 81/151/209 86/152/210 76/135/179 72/137/191
f 73/139/193 74/138/192 87/153/211 82/154/212
s 4
f 78/132/187 77/131/186 88/155/213 89/156/214
f 90/157/215 91/158/216 80/134/189 79/133/188
s off
f 92/159/217 84/146/218 83/145/219 85/148/220
s 1
f 87/160/211 74/127/192 84/146/221 92/159/222
s off
f 80/147/223 87/160/224 92/159/225 85/148/226
f 93/161/227 87/160/228 80/147/229 91/162/230
s 4
f 88/163/213 77/150/186 94/164/231 95/165/232
s 3
f 96/166/233 97/167/234 98/168/235 99/169/236
s off
f 77/150/237 86/149/238 100/170/239 94/164/240
s 1
f 101/171/241 102/172/242 86/152/210 81/151/209
f 82/154/212 87/153/211 93/173/243 103/174/244
s off
f 102/175/245 104/176/246 105/177/247 88/163/248
s 4
f 91/162/216 105/177/249 106/178/250 107/179/251
s off
f 102/175/252 88/163/253 95/165/254 108/180/255
s 1
f 86/149/210 102/175/242 108/180/256 100/170/257
s off
f 100/170/258 108/180/259 95/165/260 94/164/261
f 93/161/262 91/162/263 107/179/264 109/181/265
f 105/177/266 104/176/267 110/182/268 106/178/269
s 4
f 105/183/249 91/158/216 90/157/215 111/184/270 112/185/271
s 1
f 104/176/272 93/161/243 109/181/273 110/182/274
s off
f 110/182/275 109/181/276 107/179/277 106/178/278
s 1
f 93/173/243 104/186/272 113/187/279 114/188/280 103/174/244
s 3
f 97/167/234 101/189/281 81/141/195 78/142/196 89/190/282 98/168/235
f 82/143/197 103/191/283 114/192/284 111/193/285 90/194/286 79/144/198
s 4
f 88/155/213 105/183/249 112/185/271 99/195/287 98/196/288 89/156/214
s 3
f 114/192/284 113/197/289 96/166/233 99/169/236 112/198/290 111/193/285
s 1
f 104/186/272 102/172/242 101/171/241 97/199/291 96/200/292 113/187/279
