# This file uses centimeters as units for non-parametric coordinates.

mtllib ladder.mtl
g default
v 2.322163 -2.978542 0.500000
v 3.322163 -2.978542 0.500000
v 2.322163 -1.978542 0.500000
v 3.322163 -1.978542 0.500000
v 2.322163 -1.978542 -0.500000
v 3.322163 -1.978542 -0.500000
v 2.322163 -2.978542 -0.500000
v 3.322163 -2.978542 -0.500000
v 4.322163 -2.978542 -0.500000
v 4.322163 -2.978542 0.500000
v 4.322163 -1.978542 -0.500000
v 4.322163 -1.978542 0.500000
v 1.322163 -2.978542 -0.500000
v 1.322163 -2.978542 0.500000
v 1.322163 -1.978542 0.500000
v 1.322163 -1.978542 -0.500000
v 0.322163 -2.978542 -0.500000
v 0.322163 -2.978542 0.500000
v 0.322163 -1.978542 0.500000
v 0.322163 -1.978542 -0.500000
v -0.677837 -2.978542 -0.500000
v -0.677837 -2.978542 0.500000
v -0.677837 -1.978542 0.500000
v -0.677837 -1.978542 -0.500000
v -1.677837 -2.978542 -0.500000
v -1.677837 -2.978542 0.500000
v -1.677837 -1.978542 0.500000
v -1.677837 -1.978542 -0.500000
v -2.677837 -2.978542 -0.500000
v -2.677837 -2.978542 0.500000
v -2.677837 -1.978542 0.500000
v -2.677837 -1.978542 -0.500000
v -3.677837 -2.978542 -0.500000
v -3.677837 -2.978542 0.500000
v -3.677837 -1.978542 0.500000
v -3.677837 -1.978542 -0.500000
v 2.322163 -0.978542 0.500000
v 3.322163 -0.978542 0.500000
v 3.322163 -0.978542 -0.500000
v 2.322163 -0.978542 -0.500000
v 1.322163 -0.978542 -0.500000
v 1.322163 -0.978542 0.500000
v 0.322163 -0.978542 -0.500000
v 0.322163 -0.978542 0.500000
v -0.677837 -0.978542 -0.500000
v -0.677837 -0.978542 0.500000
v -1.677837 -0.978542 -0.500000
v -1.677837 -0.978542 0.500000
v -2.677837 -0.978542 -0.500000
v -2.677837 -0.978542 0.500000
v -3.677837 -0.978542 -0.500000
v -3.677837 -0.978542 0.500000
v 2.322163 0.021458 0.500000
v 2.322163 0.021458 -0.500000
v 1.322163 0.021458 -0.500000
v 1.322163 0.021458 0.500000
v 0.322163 0.021458 -0.500000
v 0.322163 0.021458 0.500000
v -0.677837 0.021458 -0.500000
v -0.677837 0.021458 0.500000
v -1.677837 0.021458 -0.500000
v -1.677837 0.021458 0.500000
v -2.677837 0.021458 -0.500000
v -2.677837 0.021458 0.500000
v -3.677837 0.021458 -0.500000
v -3.677837 0.021458 0.500000
v 1.322163 1.021458 0.500000
v 1.322163 1.021458 -0.500000
v 0.322163 1.021458 -0.500000
v 0.322163 1.021458 0.500000
v -0.677837 1.021458 -0.500000
v -0.677837 1.021458 0.500000
v -1.677837 1.021458 -0.500000
v -1.677837 1.021458 0.500000
v -2.677837 1.021458 -0.500000
v -2.677837 1.021458 0.500000
v -3.677837 1.021458 -0.500000
v -3.677837 1.021458 0.500000
v 0.322163 2.021458 0.500000
v 0.322163 2.021458 -0.500000
v -0.677837 2.021458 -0.500000
v -0.677837 2.021458 0.500000
v -1.677837 2.021458 -0.500000
v -1.677837 2.021458 0.500000
v -2.677837 2.021458 -0.500000
v -2.677837 2.021458 0.500000
v -3.677837 2.021458 -0.500000
v -3.677837 2.021458 0.500000
v -0.677837 3.021458 0.500000
v -0.677837 3.021458 -0.500000
v -1.677837 3.021458 -0.500000
v -1.677837 3.021458 0.500000
v -2.677837 3.021458 -0.500000
v -2.677837 3.021458 0.500000
v -3.677837 3.021458 -0.500000
v -3.677837 3.021458 0.500000
v -1.677837 4.021458 0.500000
v -1.677837 4.021458 -0.500000
v -2.677837 4.021458 -0.500000
v -2.677837 4.021458 0.500000
v -3.677837 4.021458 -0.500000
v -3.677837 4.021458 0.500000
v -2.677837 5.021458 0.500000
v -2.677837 5.021458 -0.500000
v -3.677837 5.021458 -0.500000
v -3.677837 5.021458 0.500000
vt 0.375000 0.000000
vt 0.625000 0.000000
vt 0.375000 0.250000
vt 0.625000 0.250000
vt 0.375000 0.500000
vt 0.625000 0.500000
vt 0.375000 0.750000
vt 0.625000 0.750000
vt 0.375000 1.000000
vt 0.625000 1.000000
vt 0.875000 0.000000
vt 0.875000 0.250000
vt 0.125000 0.000000
vt 0.125000 0.250000
vt 0.625000 0.000000
vt 0.875000 0.000000
vt 0.875000 0.250000
vt 0.625000 0.250000
vt 0.125000 0.000000
vt 0.375000 0.000000
vt 0.375000 0.250000
vt 0.125000 0.250000
vt 0.125000 0.000000
vt 0.375000 0.000000
vt 0.375000 0.250000
vt 0.125000 0.250000
vt 0.125000 0.000000
vt 0.375000 0.000000
vt 0.375000 0.250000
vt 0.125000 0.250000
vt 0.125000 0.000000
vt 0.375000 0.000000
vt 0.375000 0.250000
vt 0.125000 0.250000
vt 0.125000 0.000000
vt 0.375000 0.000000
vt 0.375000 0.250000
vt 0.125000 0.250000
vt 0.125000 0.000000
vt 0.375000 0.000000
vt 0.375000 0.250000
vt 0.125000 0.250000
vt 0.375000 0.250000
vt 0.625000 0.250000
vt 0.625000 0.500000
vt 0.375000 0.500000
vt 0.125000 0.250000
vt 0.125000 0.250000
vt 0.375000 0.250000
vt 0.125000 0.250000
vt 0.375000 0.250000
vt 0.125000 0.250000
vt 0.375000 0.250000
vt 0.125000 0.250000
vt 0.375000 0.250000
vt 0.125000 0.250000
vt 0.375000 0.250000
vt 0.125000 0.250000
vt 0.375000 0.250000
vt 0.375000 0.250000
vt 0.125000 0.250000
vt 0.125000 0.250000
vt 0.375000 0.250000
vt 0.125000 0.250000
vt 0.375000 0.250000
vt 0.125000 0.250000
vt 0.375000 0.250000
vt 0.125000 0.250000
vt 0.375000 0.250000
vt 0.125000 0.250000
vt 0.375000 0.250000
vt 0.125000 0.250000
vt 0.375000 0.250000
vt 0.375000 0.250000
vt 0.125000 0.250000
vt 0.125000 0.250000
vt 0.375000 0.250000
vt 0.125000 0.250000
vt 0.375000 0.250000
vt 0.125000 0.250000
vt 0.375000 0.250000
vt 0.125000 0.250000
vt 0.375000 0.250000
vt 0.125000 0.250000
vt 0.375000 0.250000
vt 0.375000 0.250000
vt 0.125000 0.250000
vt 0.125000 0.250000
vt 0.375000 0.250000
vt 0.125000 0.250000
vt 0.375000 0.250000
vt 0.125000 0.250000
vt 0.375000 0.250000
vt 0.125000 0.250000
vt 0.375000 0.250000
vt 0.375000 0.250000
vt 0.125000 0.250000
vt 0.125000 0.250000
vt 0.375000 0.250000
vt 0.125000 0.250000
vt 0.375000 0.250000
vt 0.125000 0.250000
vt 0.375000 0.250000
vt 0.375000 0.250000
vt 0.125000 0.250000
vt 0.125000 0.250000
vt 0.375000 0.250000
vt 0.125000 0.250000
vt 0.375000 0.250000
vt 0.375000 0.250000
vt 0.125000 0.250000
vt 0.125000 0.250000
vt 0.375000 0.250000
vn 0.000000 0.000000 1.000000
vn 0.000000 0.000000 1.000000
vn 0.000000 0.000000 1.000000
vn 0.000000 0.000000 1.000000
vn 0.000000 1.000000 0.000000
vn 0.000000 1.000000 0.000000
vn 0.000000 1.000000 0.000000
vn 0.000000 1.000000 0.000000
vn 0.000000 0.000000 -1.000000
vn 0.000000 0.000000 -1.000000
vn 0.000000 0.000000 -1.000000
vn 0.000000 0.000000 -1.000000
vn 0.000000 -1.000000 0.000000
vn 0.000000 -1.000000 0.000000
vn 0.000000 -1.000000 0.000000
vn 0.000000 -1.000000 0.000000
vn 1.000000 0.000000 0.000000
vn 1.000000 0.000000 0.000000
vn 1.000000 0.000000 0.000000
vn 1.000000 0.000000 0.000000
vn -1.000000 0.000000 0.000000
vn -1.000000 0.000000 0.000000
vn -1.000000 0.000000 0.000000
vn -1.000000 0.000000 0.000000
vn 0.000000 -1.000000 0.000000
vn 0.000000 -1.000000 0.000000
vn 0.000000 0.000000 -1.000000
vn 0.000000 0.000000 -1.000000
vn 0.000000 1.000000 0.000000
vn 0.000000 1.000000 0.000000
vn 0.000000 1.000000 0.000000
vn 0.000000 1.000000 0.000000
vn 0.000000 0.000000 1.000000
vn 0.000000 0.000000 1.000000
vn 0.000000 -1.000000 0.000000
vn 0.000000 -1.000000 0.000000
vn 0.000000 0.000000 1.000000
vn 0.000000 0.000000 1.000000
vn 0.000000 1.000000 0.000000
vn 0.000000 1.000000 0.000000
vn 0.000000 1.000000 0.000000
vn 0.000000 1.000000 0.000000
vn 0.000000 0.000000 -1.000000
vn 0.000000 0.000000 -1.000000
vn 0.000000 -1.000000 0.000000
vn 0.000000 -1.000000 0.000000
vn 0.000000 0.000000 1.000000
vn 0.000000 0.000000 1.000000
vn 0.000000 1.000000 0.000000
vn 0.000000 1.000000 0.000000
vn 0.000000 1.000000 0.000000
vn 0.000000 1.000000 0.000000
vn 0.000000 0.000000 -1.000000
vn 0.000000 0.000000 -1.000000
vn 0.000000 -1.000000 0.000000
vn 0.000000 -1.000000 0.000000
vn 0.000000 0.000000 1.000000
vn 0.000000 0.000000 1.000000
vn 0.000000 1.000000 0.000000
vn 0.000000 1.000000 0.000000
vn 0.000000 1.000000 0.000000
vn 0.000000 1.000000 0.000000
vn 0.000000 0.000000 -1.000000
vn 0.000000 0.000000 -1.000000
vn 0.000000 -1.000000 0.000000
vn 0.000000 -1.000000 0.000000
vn 0.000000 0.000000 1.000000
vn 0.000000 0.000000 1.000000
vn 0.000000 1.000000 0.000000
vn 0.000000 1.000000 0.000000
vn 0.000000 1.000000 0.000000
vn 0.000000 1.000000 0.000000
vn 0.000000 0.000000 -1.000000
vn 0.000000 0.000000 -1.000000
vn 0.000000 -1.000000 0.000000
vn 0.000000 -1.000000 0.000000
vn 0.000000 0.000000 1.000000
vn 0.000000 0.000000 1.000000
vn 0.000000 1.000000 0.000000
vn 0.000000 1.000000 0.000000
vn 0.000000 1.000000 0.000000
vn 0.000000 1.000000 0.000000
vn 0.000000 0.000000 -1.000000
vn 0.000000 0.000000 -1.000000
vn 0.000000 -1.000000 0.000000
vn 0.000000 -1.000000 0.000000
vn 0.000000 0.000000 1.000000
vn 0.000000 0.000000 1.000000
vn 0.000000 1.000000 0.000000
vn 0.000000 1.000000 0.000000
vn 0.000000 1.000000 0.000000
vn 0.000000 1.000000 0.000000
vn 0.000000 0.000000 -1.000000
vn 0.000000 0.000000 -1.000000
vn 0.000000 0.000000 1.000000
vn 0.000000 0.000000 1.000000
vn 1.000000 0.000000 0.000000
vn 1.000000 0.000000 0.000000
vn 1.000000 0.000000 0.000000
vn 1.000000 0.000000 0.000000
vn 0.000000 0.000000 -1.000000
vn 0.000000 0.000000 -1.000000
vn 0.000000 0.000000 -1.000000
vn 0.000000 0.000000 1.000000
vn 0.000000 0.000000 -1.000000
vn 0.000000 0.000000 1.000000
vn 0.000000 0.000000 -1.000000
vn 0.000000 0.000000 1.000000
vn 0.000000 0.000000 -1.000000
vn 0.000000 0.000000 1.000000
vn 0.000000 0.000000 -1.000000
vn 0.000000 0.000000 1.000000
vn 0.000000 0.000000 -1.000000
vn -1.000000 0.000000 0.000000
vn -1.000000 0.000000 0.000000
vn 0.000000 0.000000 1.000000
vn 1.000000 0.000000 0.000000
vn 1.000000 0.000000 0.000000
vn 1.000000 0.000000 0.000000
vn 1.000000 0.000000 0.000000
vn 0.000000 0.000000 -1.000000
vn 0.000000 0.000000 -1.000000
vn 0.000000 0.000000 1.000000
vn 0.000000 0.000000 1.000000
vn 0.000000 0.000000 -1.000000
vn 0.000000 0.000000 1.000000
vn 0.000000 0.000000 -1.000000
vn 0.000000 0.000000 1.000000
vn 0.000000 0.000000 -1.000000
vn 0.000000 0.000000 1.000000
vn 0.000000 0.000000 -1.000000
vn 0.000000 0.000000 1.000000
vn 0.000000 0.000000 -1.000000
vn -1.000000 0.000000 0.000000
vn -1.000000 0.000000 0.000000
vn 0.000000 0.000000 1.000000
vn 1.000000 0.000000 0.000000
vn 1.000000 0.000000 0.000000
vn 1.000000 0.000000 0.000000
vn 1.000000 0.000000 0.000000
vn 0.000000 0.000000 -1.000000
vn 0.000000 0.000000 -1.000000
vn 0.000000 0.000000 1.000000
vn 0.000000 0.000000 1.000000
vn 0.000000 0.000000 -1.000000
vn 0.000000 0.000000 1.000000
vn 0.000000 0.000000 -1.000000
vn 0.000000 0.000000 1.000000
vn 0.000000 0.000000 -1.000000
vn 0.000000 0.000000 1.000000
vn 0.000000 0.000000 -1.000000
vn -1.000000 0.000000 0.000000
vn -1.000000 0.000000 0.000000
vn 0.000000 0.000000 1.000000
vn 1.000000 0.000000 0.000000
vn 1.000000 0.000000 0.000000
vn 1.000000 0.000000 0.000000
vn 1.000000 0.000000 0.000000
vn 0.000000 0.000000 -1.000000
vn 0.000000 0.000000 -1.000000
vn 0.000000 0.000000 1.000000
vn 0.000000 0.000000 1.000000
vn 0.000000 0.000000 -1.000000
vn 0.000000 0.000000 1.000000
vn 0.000000 0.000000 -1.000000
vn 0.000000 0.000000 1.000000
vn 0.000000 0.000000 -1.000000
vn -1.000000 0.000000 0.000000
vn -1.000000 0.000000 0.000000
vn 0.000000 0.000000 1.000000
vn 1.000000 0.000000 0.000000
vn 1.000000 0.000000 0.000000
vn 1.000000 0.000000 0.000000
vn 1.000000 0.000000 0.000000
vn 0.000000 0.000000 -1.000000
vn 0.000000 0.000000 -1.000000
vn 0.000000 0.000000 1.000000
vn 0.000000 0.000000 1.000000
vn 0.000000 0.000000 -1.000000
vn 0.000000 0.000000 1.000000
vn 0.000000 0.000000 -1.000000
vn -1.000000 0.000000 0.000000
vn -1.000000 0.000000 0.000000
vn 0.000000 0.000000 1.000000
vn 1.000000 0.000000 0.000000
vn 1.000000 0.000000 0.000000
vn 1.000000 0.000000 0.000000
vn 1.000000 0.000000 0.000000
vn 0.000000 0.000000 -1.000000
vn 0.000000 0.000000 -1.000000
vn 0.000000 0.000000 1.000000
vn 0.000000 0.000000 1.000000
vn 0.000000 0.000000 -1.000000
vn -1.000000 0.000000 0.000000
vn -1.000000 0.000000 0.000000
vn 0.000000 0.000000 1.000000
vn 1.000000 0.000000 0.000000
vn 1.000000 0.000000 0.000000
vn 1.000000 0.000000 0.000000
vn 1.000000 0.000000 0.000000
vn 0.000000 0.000000 -1.000000
vn 0.000000 0.000000 -1.000000
vn -1.000000 0.000000 0.000000
vn -1.000000 0.000000 0.000000
vn 0.000000 0.000000 1.000000
vn 0.000000 0.000000 1.000000
s 1
g pCube1
usemtl initialShadingGroup
f 1/1/1 2/2/2 4/4/3 3/3/4
s off
f 37/43/5 38/44/6 39/45/7 40/46/8
s 2
f 5/5/9 6/6/10 8/8/11 7/7/12
s 3
f 7/7/13 8/8/14 2/10/15 1/9/16
s off
f 10/15/17 9/16/18 11/17/19 12/18/20
s 4
f 33/39/21 34/40/22 35/41/23 36/42/24
s 3
f 2/2/15 8/11/14 9/16/25 10/15/26
s 2
f 8/11/11 6/12/10 11/17/27 9/16/28
s off
f 6/12/29 4/4/30 12/18/31 11/17/32
s 1
f 4/4/3 2/2/2 10/15/33 12/18/34
s 3
f 7/13/13 1/1/16 14/20/35 13/19/36
s 1
f 1/1/1 3/3/4 15/21/37 14/20/38
s off
f 53/60/39 54/61/40 55/62/41 56/63/42
s 2
f 5/14/9 7/13/12 13/19/43 16/22/44
s 3
f 13/19/36 14/20/35 18/24/45 17/23/46
s 1
f 14/20/38 15/21/37 19/25/47 18/24/48
s off
f 67/74/49 68/75/50 69/76/51 70/77/52
s 2
f 16/22/44 13/19/43 17/23/53 20/26/54
s 3
f 17/23/46 18/24/45 22/28/55 21/27/56
s 1
f 18/24/48 19/25/47 23/29/57 22/28/58
s off
f 79/86/59 80/87/60 81/88/61 82/89/62
s 2
f 20/26/54 17/23/53 21/27/63 24/30/64
s 3
f 21/27/56 22/28/55 26/32/65 25/31/66
s 1
f 22/28/58 23/29/57 27/33/67 26/32/68
s off
f 89/96/69 90/97/70 91/98/71 92/99/72
s 2
f 24/30/64 21/27/63 25/31/73 28/34/74
s 3
f 25/31/66 26/32/65 30/36/75 29/35/76
s 1
f 26/32/68 27/33/67 31/37/77 30/36/78
s off
f 97/104/79 98/105/80 99/106/81 100/107/82
s 2
f 28/34/74 25/31/73 29/35/83 32/38/84
s 3
f 29/35/76 30/36/75 34/40/85 33/39/86
s 1
f 30/36/78 31/37/77 35/41/87 34/40/88
s off
f 103/110/89 104/111/90 105/112/91 106/113/92
s 2
f 32/38/84 29/35/83 33/39/93 36/42/94
s 1
f 3/3/4 4/4/3 38/44/95 37/43/96
s off
f 4/4/97 6/6/98 39/45/99 38/44/100
s 2
f 6/6/10 5/5/9 40/46/101 39/45/102
f 5/14/9 16/22/44 41/48/103 40/47/101
s 1
f 15/21/37 3/3/4 37/43/96 42/49/104
s 2
f 16/22/44 20/26/54 43/50/105 41/48/103
s 1
f 19/25/47 15/21/37 42/49/104 44/51/106
s 2
f 20/26/54 24/30/64 45/52/107 43/50/105
s 1
f 23/29/57 19/25/47 44/51/106 46/53/108
s 2
f 24/30/64 28/34/74 47/54/109 45/52/107
s 1
f 27/33/67 23/29/57 46/53/108 48/55/110
s 2
f 28/34/74 32/38/84 49/56/111 47/54/109
s 1
f 31/37/77 27/33/67 48/55/110 50/57/112
s 2
f 32/38/84 36/42/94 51/58/113 49/56/111
s 4
f 36/42/24 35/41/23 52/59/114 51/58/115
s 1
f 35/41/87 31/37/77 50/57/112 52/59/116
s off
f 37/43/117 40/47/118 54/61/119 53/60/120
s 2
f 40/47/101 41/48/103 55/62/121 54/61/122
s 1
f 42/49/104 37/43/96 53/60/123 56/63/124
s 2
f 41/48/103 43/50/105 57/64/125 55/62/121
s 1
f 44/51/106 42/49/104 56/63/124 58/65/126
s 2
f 43/50/105 45/52/107 59/66/127 57/64/125
s 1
f 46/53/108 44/51/106 58/65/126 60/67/128
s 2
f 45/52/107 47/54/109 61/68/129 59/66/127
s 1
f 48/55/110 46/53/108 60/67/128 62/69/130
s 2
f 47/54/109 49/56/111 63/70/131 61/68/129
s 1
f 50/57/112 48/55/110 62/69/130 64/71/132
s 2
f 49/56/111 51/58/113 65/72/133 63/70/131
s 4
f 51/58/115 52/59/114 66/73/134 65/72/135
s 1
f 52/59/116 50/57/112 64/71/132 66/73/136
s off
f 56/63/137 55/62/138 68/75/139 67/74/140
s 2
f 55/62/121 57/64/125 69/76/141 68/75/142
s 1
f 58/65/126 56/63/124 67/74/143 70/77/144
s 2
f 57/64/125 59/66/127 71/78/145 69/76/141
s 1
f 60/67/128 58/65/126 70/77/144 72/79/146
s 2
f 59/66/127 61/68/129 73/80/147 71/78/145
s 1
f 62/69/130 60/67/128 72/79/146 74/81/148
s 2
f 61/68/129 63/70/131 75/82/149 73/80/147
s 1
f 64/71/132 62/69/130 74/81/148 76/83/150
s 2
f 63/70/131 65/72/133 77/84/151 75/82/149
s 4
f 65/72/135 66/73/134 78/85/152 77/84/153
s 1
f 66/73/136 64/71/132 76/83/150 78/85/154
s off
f 70/77/155 69/76/156 80/87/157 79/86/158
s 2
f 69/76/141 71/78/145 81/88/159 80/87/160
s 1
f 72/79/146 70/77/144 79/86/161 82/89/162
s 2
f 71/78/145 73/80/147 83/90/163 81/88/159
s 1
f 74/81/148 72/79/146 82/89/162 84/91/164
s 2
f 73/80/147 75/82/149 85/92/165 83/90/163
s 1
f 76/83/150 74/81/148 84/91/164 86/93/166
s 2
f 75/82/149 77/84/151 87/94/167 85/92/165
s 4
f 77/84/153 78/85/152 88/95/168 87/94/169
s 1
f 78/85/154 76/83/150 86/93/166 88/95/170
s off
f 82/89/171 81/88/172 90/97/173 89/96/174
s 2
f 81/88/159 83/90/163 91/98/175 90/97/176
s 1
f 84/91/164 82/89/162 89/96/177 92/99/178
s 2
f 83/90/163 85/92/165 93/100/179 91/98/175
s 1
f 86/93/166 84/91/164 92/99/178 94/101/180
s 2
f 85/92/165 87/94/167 95/102/181 93/100/179
s 4
f 87/94/169 88/95/168 96/103/182 95/102/183
s 1
f 88/95/170 86/93/166 94/101/180 96/103/184
s off
f 92/99/185 91/98/186 98/105/187 97/104/188
s 2
f 91/98/175 93/100/179 99/106/189 98/105/190
s 1
f 94/101/180 92/99/178 97/104/191 100/107/192
s 2
f 93/100/179 95/102/181 101/108/193 99/106/189
s 4
f 95/102/183 96/103/182 102/109/194 101/108/195
s 1
f 96/103/184 94/101/180 100/107/192 102/109/196
s off
f 100/107/197 99/106/198 104/111/199 103/110/200
s 2
f 99/106/189 101/108/193 105/112/201 104/111/202
s 4
f 101/108/195 102/109/194 106/113/203 105/112/204
s 1
f 102/109/196 100/107/192 103/110/205 106/113/206
