# This file uses centimeters as units for non-parametric coordinates.

mtllib Mobius strip.mtl
g default
v -0.006504 -0.113830 -0.553772
v -0.006504 0.113830 -0.553772
v 0.007764 -0.113830 -0.780536
v 0.007764 0.113830 -0.780535
v -0.149471 -0.098666 -0.519980
v -0.270019 -0.081946 -0.455734
v -0.369585 -0.063933 -0.366667
v -0.443996 -0.044912 -0.258696
v -0.490502 -0.025183 -0.138101
v -0.507678 -0.005057 -0.011251
v -0.495271 0.015150 0.115572
v -0.454087 0.035117 0.236258
v -0.385939 0.054530 0.344961
v -0.293633 0.073084 0.436125
v -0.181015 0.090484 0.504640
v -0.053022 0.106458 0.545976
v 0.084313 0.120753 0.556478
v 0.223916 0.133144 0.533673
v 0.357872 0.143435 0.476642
v 0.477757 0.151463 0.386367
v 0.575112 0.157104 0.265991
v 0.642074 0.160266 0.120953
v 0.672036 0.160901 -0.041082
v 0.660366 0.158999 -0.210519
v 0.605006 0.154589 -0.376358
v 0.506947 0.147741 -0.526944
v 0.370453 0.138563 -0.650862
v 0.202995 0.127200 -0.737914
v -0.153047 0.127200 -0.548288
v -0.290860 0.138563 -0.508375
v -0.418847 0.147741 -0.434469
v -0.528503 0.154589 -0.328607
v -0.611582 0.158999 -0.195077
v -0.660762 0.160901 -0.040452
v -0.670341 0.160266 0.126586
v -0.636899 0.157104 0.295659
v -0.559866 0.151463 0.455336
v -0.441849 0.143435 0.593962
v -0.288750 0.133144 0.700607
v -0.109527 0.120753 0.766050
v 0.084313 0.106458 0.783690
v 0.279530 0.090485 0.750276
v 0.462182 0.073084 0.666378
v 0.618768 0.054530 0.536531
v 0.737410 0.035117 0.368986
v 0.808903 0.015150 0.175161
v 0.827573 -0.005056 -0.031298
v 0.791812 -0.025183 -0.235592
v 0.704245 -0.044912 -0.423056
v 0.571522 -0.063933 -0.580365
v 0.403732 -0.081946 -0.696665
v 0.213499 -0.098666 -0.764444
v -0.181358 0.098666 -0.772372
v -0.372033 0.081946 -0.713399
v -0.543266 0.063933 -0.605716
v -0.682221 0.044912 -0.455774
v -0.778235 0.025183 -0.273498
v -0.823780 0.005057 -0.071549
v -0.815171 -0.015150 0.135696
v -0.752915 -0.035117 0.333356
v -0.641710 -0.054530 0.507275
v -0.490007 -0.073084 0.645246
v -0.309301 -0.090485 0.737990
v -0.113082 -0.106458 0.779896
v 0.084312 -0.120753 0.769395
v 0.268921 -0.133144 0.708957
v 0.428289 -0.143435 0.604729
v 0.552413 -0.151463 0.465869
v 0.634412 -0.157104 0.303623
v 0.670890 -0.160266 0.130316
v 0.661943 -0.160901 -0.041717
v 0.610892 -0.158999 -0.201081
v 0.523731 -0.154589 -0.338112
v 0.408425 -0.147741 -0.445439
v 0.274120 -0.138563 -0.518271
v 0.130354 -0.127199 -0.554438
v -0.177781 -0.127200 -0.744064
v -0.351192 -0.138563 -0.660758
v -0.494005 -0.147741 -0.537914
v -0.597713 -0.154589 -0.385863
v -0.657155 -0.158999 -0.216522
v -0.670696 -0.160901 -0.042347
v -0.640101 -0.160266 0.124683
v -0.570103 -0.157104 0.273955
v -0.467783 -0.151463 0.396900
v -0.341791 -0.143435 0.487410
v -0.201566 -0.133144 0.542023
v -0.056577 -0.120753 0.559822
v 0.084312 -0.106458 0.542183
v 0.213308 -0.090484 0.492354
v 0.323980 -0.073084 0.414993
v 0.411402 -0.054530 0.315705
v 0.472114 -0.035117 0.200628
v 0.504060 -0.015149 0.076108
v 0.506406 0.005057 -0.051502
v 0.479447 0.025183 -0.176007
v 0.424493 0.044912 -0.291414
v 0.343850 0.063933 -0.392018
v 0.240841 0.081946 -0.472467
v 0.119850 0.098666 -0.527909
vt 0.000000 0.000000
vt 1.000000 0.000000
vt 0.000000 1.000000
vt 1.000000 1.000000
vt 0.000000 0.000000
vt 1.000000 0.000000
vt 1.000000 1.000000
vt 0.000000 1.000000
vt 0.000000 0.000000
vt 0.000000 0.000000
vt 0.000000 0.000000
vt 0.000000 0.000000
vt 0.000000 0.000000
vt 0.000000 0.000000
vt 0.000000 0.000000
vt 0.000000 0.000000
vt 0.000000 0.000000
vt 0.000000 0.000000
vt 0.000000 0.000000
vt 0.000000 0.000000
vt 0.000000 0.000000
vt 0.000000 0.000000
vt 0.000000 0.000000
vt 0.000000 0.000000
vt 0.000000 0.000000
vt 0.000000 0.000000
vt 0.000000 0.000000
vt 0.000000 0.000000
vt 0.000000 0.000000
vt 0.000000 0.000000
vt 0.000000 0.000000
vt 0.000000 0.000000
vt 0.000000 0.000000
vt 1.000000 0.000000
vt 1.000000 0.000000
vt 1.000000 0.000000
vt 1.000000 0.000000
vt 1.000000 0.000000
vt 1.000000 0.000000
vt 1.000000 0.000000
vt 1.000000 0.000000
vt 1.000000 0.000000
vt 1.000000 0.000000
vt 1.000000 0.000000
vt 1.000000 0.000000
vt 1.000000 0.000000
vt 1.000000 0.000000
vt 1.000000 0.000000
vt 1.000000 0.000000
vt 1.000000 0.000000
vt 1.000000 0.000000
vt 1.000000 0.000000
vt 1.000000 0.000000
vt 1.000000 0.000000
vt 1.000000 0.000000
vt 1.000000 0.000000
vt 1.000000 0.000000
vt 1.000000 0.000000
vt 1.000000 1.000000
vt 1.000000 1.000000
vt 1.000000 1.000000
vt 1.000000 1.000000
vt 1.000000 1.000000
vt 1.000000 1.000000
vt 1.000000 1.000000
vt 1.000000 1.000000
vt 1.000000 1.000000
vt 1.000000 1.000000
vt 1.000000 1.000000
vt 1.000000 1.000000
vt 1.000000 1.000000
vt 1.000000 1.000000
vt 1.000000 1.000000
vt 1.000000 1.000000
vt 1.000000 1.000000
vt 1.000000 1.000000
vt 1.000000 1.000000
vt 1.000000 1.000000
vt 1.000000 1.000000
vt 1.000000 1.000000
vt 1.000000 1.000000
vt 1.000000 1.000000
vt 1.000000 1.000000
vt 0.000000 1.000000
vt 0.000000 1.000000
vt 0.000000 1.000000
vt 0.000000 1.000000
vt 0.000000 1.000000
vt 0.000000 1.000000
vt 0.000000 1.000000
vt 0.000000 1.000000
vt 0.000000 1.000000
vt 0.000000 1.000000
vt 0.000000 1.000000
vt 0.000000 1.000000
vt 0.000000 1.000000
vt 0.000000 1.000000
vt 0.000000 1.000000
vt 0.000000 1.000000
vt 0.000000 1.000000
vt 0.000000 1.000000
vt 0.000000 1.000000
vt 0.000000 1.000000
vt 0.000000 1.000000
vt 0.000000 1.000000
vt 0.000000 1.000000
vt 0.000000 1.000000
vt 0.000000 1.000000
vn 0.998026 0.000000 0.062795
vn 0.998026 0.000000 0.062795
vn 0.998026 0.000000 0.062795
vn 0.998026 0.000000 0.062795
vn 0.140244 0.062783 0.988125
vn 0.140244 0.062783 0.988124
vn 0.268716 0.126961 0.954815
vn 0.255865 0.120534 0.959168
vn 0.490226 0.249754 0.835046
vn 0.482156 0.244768 0.841199
vn 0.653159 0.367438 0.662098
vn 0.649137 0.363973 0.667941
vn 0.750341 0.479768 0.454766
vn 0.749148 0.477689 0.458901
vn 0.775281 0.585021 0.238096
vn 0.775374 0.584126 0.239984
vn 0.730830 0.681519 0.037678
vn 0.730804 0.681551 0.037613
vn 0.628788 0.767658 -0.123803
vn 0.627739 0.768332 -0.124940
vn 0.488256 0.841961 -0.229582
vn 0.485960 0.842984 -0.230695
vn 0.333008 0.903114 -0.271093
vn 0.329869 0.904215 -0.271259
vn 0.188157 0.950015 -0.249137
vn 0.184985 0.950964 -0.247886
vn 0.076636 0.981807 -0.173730
vn 0.074309 0.982438 -0.171156
vn 0.015909 0.997907 -0.062677
vn 0.015066 0.998123 -0.059355
vn 0.015491 0.998018 0.060999
vn 0.016316 0.997801 0.064248
vn 0.075536 0.982132 0.172369
vn 0.077718 0.981536 0.174777
vn 0.186781 0.950529 0.248210
vn 0.189635 0.949671 0.249328
vn 0.331838 0.903757 0.270383
vn 0.334551 0.902802 0.270230
vn 0.487622 0.842618 0.228518
vn 0.489533 0.841763 0.227580
vn 0.628629 0.768143 0.121580
vn 0.629474 0.767597 0.120654
vn 0.730558 0.681567 -0.041848
vn 0.730582 0.681538 -0.041907
vn 0.773780 0.584303 -0.244652
vn 0.773719 0.584980 -0.243224
vn 0.746175 0.477915 -0.463487
vn 0.747080 0.479461 -0.460422
vn 0.644939 0.364095 -0.671928
vn 0.647907 0.366633 -0.667681
vn 0.477090 0.244631 -0.844121
vn 0.482942 0.248241 -0.839728
vn 0.255159 0.120328 -0.959383
vn 0.264057 0.124931 -0.956382
vn 0.140360 0.061059 -0.988216
vn 0.140360 0.061059 -0.988216
vn -0.007896 0.997988 -0.062915
vn -0.007896 0.997988 -0.062915
vn -0.038229 0.992109 -0.119408
vn -0.039782 0.991696 -0.122296
vn -0.125678 0.968267 -0.216019
vn -0.128297 0.967522 -0.217811
vn -0.256429 0.928994 -0.266860
vn -0.259310 0.928065 -0.267309
vn -0.409967 0.874924 -0.257750
vn -0.412342 0.873993 -0.257119
vn -0.561563 0.806975 -0.182865
vn -0.562944 0.806247 -0.181822
vn -0.685853 0.726283 -0.046038
vn -0.686223 0.725970 -0.045447
vn -0.760468 0.634176 0.139676
vn -0.760332 0.634477 0.139045
vn -0.769238 0.532146 0.353686
vn -0.769518 0.533240 0.351421
vn -0.704549 0.421824 0.570680
vn -0.706358 0.423853 0.566928
vn -0.568533 0.304954 0.764051
vn -0.572868 0.308021 0.759570
vn -0.372889 0.183363 0.909578
vn -0.380328 0.187524 0.905641
vn -0.137396 0.058943 0.988761
vn -0.147856 0.064203 0.986923
vn 0.112718 -0.066382 0.991407
vn 0.100078 -0.060069 0.993165
vn 0.350176 -0.190675 0.917071
vn 0.336904 -0.183410 0.923502
vn 0.549329 -0.312015 0.775167
vn 0.537455 -0.303952 0.786610
vn 0.689691 -0.428524 0.583690
vn 0.681358 -0.419866 0.599552
vn 0.758697 -0.538377 0.366782
vn 0.755738 -0.529380 0.385509
vn 0.753448 -0.639848 0.151364
vn 0.756945 -0.630807 0.170634
vn 0.681059 -0.731315 -0.036578
vn 0.691032 -0.722561 -0.019507
vn 0.557617 -0.811300 -0.175657
vn 0.572872 -0.803187 -0.163427
vn 0.405860 -0.878482 -0.252084
vn 0.424085 -0.871370 -0.246710
vn 0.251866 -0.931732 -0.261609
vn 0.269967 -0.925973 -0.263994
vn 0.121238 -0.970132 -0.210110
vn 0.135883 -0.966047 -0.219748
vn 0.035312 -0.993001 -0.112700
vn 0.043599 -0.990857 -0.127676
vn 0.008084 -0.997956 -0.063392
vn 0.008084 -0.997956 -0.063392
vn -0.113346 -0.062786 -0.991570
vn -0.113346 -0.062786 -0.991570
vn -0.239933 -0.129934 -0.962055
vn -0.226857 -0.123001 -0.966130
vn -0.455979 -0.251835 -0.853617
vn -0.443134 -0.244147 -0.862568
vn -0.627857 -0.370989 -0.684224
vn -0.617495 -0.362600 -0.698012
vn -0.733531 -0.484393 -0.476755
vn -0.727694 -0.475531 -0.494300
vn -0.765140 -0.590264 -0.257194
vn -0.765334 -0.581206 -0.276521
vn -0.724829 -0.686927 -0.052477
vn -0.731637 -0.677988 -0.070996
vn -0.624417 -0.772830 0.113295
vn -0.637257 -0.764352 0.098340
vn -0.483684 -0.846566 0.222204
vn -0.500772 -0.838909 0.213212
vn -0.327485 -0.906912 0.265076
vn -0.346065 -0.900433 0.263551
vn -0.182155 -0.952836 0.242741
vn -0.198934 -0.947877 0.248908
vn -0.071622 -0.983541 0.165886
vn -0.083391 -0.980399 0.178506
vn -0.013870 -0.998475 0.053439
vn -0.018153 -0.997386 0.069939
vn -0.018251 -0.997360 -0.070284
vn -0.013866 -0.998477 -0.053396
vn -0.084063 -0.980206 -0.179250
vn -0.071444 -0.983580 -0.165728
vn -0.200641 -0.947316 -0.249671
vn -0.181835 -0.952887 -0.242779
vn -0.348978 -0.899290 -0.263614
vn -0.327271 -0.906883 -0.265438
vn -0.504565 -0.837003 -0.211754
vn -0.483847 -0.846332 -0.222743
vn -0.641096 -0.761589 -0.094753
vn -0.625036 -0.772279 -0.113643
vn -0.734372 -0.674388 0.076806
vn -0.725692 -0.685996 0.052732
vn -0.765833 -0.576918 0.284016
vn -0.765769 -0.588970 0.258287
vn -0.725210 -0.470809 0.502404
vn -0.733347 -0.482829 0.478621
vn -0.611908 -0.357777 0.705383
vn -0.626391 -0.369320 0.686467
vn -0.434989 -0.239572 0.867980
vn -0.453035 -0.250249 0.855649
vn -0.215915 -0.119491 0.969073
vn -0.234680 -0.129172 0.963452
vn -0.101613 -0.060439 0.992986
vn -0.101613 -0.060439 0.992986
vn 0.008003 -0.997987 0.062912
vn 0.008003 -0.997987 0.062912
vn 0.043590 -0.990881 0.127497
vn 0.034997 -0.993100 0.111926
vn 0.137027 -0.965697 0.220574
vn 0.120968 -0.970185 0.210019
vn 0.272284 -0.925146 0.264511
vn 0.251563 -0.931757 0.261811
vn 0.427511 -0.869864 0.246110
vn 0.405808 -0.878367 0.252571
vn 0.576819 -0.800858 0.160953
vn 0.558015 -0.810919 0.176153
vn 0.694469 -0.719371 0.014783
vn 0.681845 -0.730577 0.036670
vn 0.758687 -0.626837 -0.177394
vn 0.754264 -0.638729 -0.152025
vn 0.754805 -0.524836 -0.393468
vn 0.758991 -0.536930 -0.368292
vn 0.677293 -0.415052 -0.607458
vn 0.688910 -0.426886 -0.585808
vn 0.530481 -0.299210 -0.793135
vn 0.547124 -0.310365 -0.777386
vn 0.327858 -0.179081 -0.927599
vn 0.346532 -0.189203 -0.918759
vn 0.090157 -0.056419 -0.994328
vn 0.107940 -0.065239 -0.992015
vn -0.157407 0.067008 -0.985258
vn -0.142756 0.059670 -0.987958
vn -0.388531 0.189449 -0.901750
vn -0.378207 0.183677 -0.907316
vn -0.579151 0.309157 -0.754325
vn -0.573219 0.304943 -0.760546
vn -0.710589 0.424380 -0.561218
vn -0.708165 0.421630 -0.566330
vn -0.771885 0.533386 -0.345967
vn -0.771529 0.531928 -0.348991
vn -0.761187 0.634467 -0.134334
vn -0.761371 0.634070 -0.135164
vn -0.685958 0.725979 0.049151
vn -0.685493 0.726368 0.049884
vn -0.561920 0.806376 0.184401
vn -0.560233 0.807260 0.185660
vn -0.410891 0.874255 0.258547
vn -0.408091 0.875349 0.259278
vn -0.257758 0.928405 0.267628
vn -0.254489 0.929456 0.267109
vn -0.126978 0.967842 0.217159
vn -0.124126 0.968649 0.215200
vn -0.039261 0.991802 0.121606
vn -0.037636 0.992229 0.118593
vn -0.007936 0.997955 0.063425
vn -0.007936 0.997955 0.063425
s off
g pPlane1
usemtl initialShadingGroup
f 1/5/1 3/8/2 4/7/3 2/6/4
s 1
f 1/1/5 2/2/6 29/34/7 5/9/8
f 5/9/8 29/34/7 30/35/9 6/10/10
f 6/10/10 30/35/9 31/36/11 7/11/12
f 7/11/12 31/36/11 32/37/13 8/12/14
f 8/12/14 32/37/13 33/38/15 9/13/16
f 9/13/16 33/38/15 34/39/17 10/14/18
f 10/14/18 34/39/17 35/40/19 11/15/20
f 11/15/20 35/40/19 36/41/21 12/16/22
f 12/16/22 36/41/21 37/42/23 13/17/24
f 13/17/24 37/42/23 38/43/25 14/18/26
f 14/18/26 38/43/25 39/44/27 15/19/28
f 15/19/28 39/44/27 40/45/29 16/20/30
f 16/20/30 40/45/29 41/46/31 17/21/32
f 17/21/32 41/46/31 42/47/33 18/22/34
f 18/22/34 42/47/33 43/48/35 19/23/36
f 19/23/36 43/48/35 44/49/37 20/24/38
f 20/24/38 44/49/37 45/50/39 21/25/40
f 21/25/40 45/50/39 46/51/41 22/26/42
f 22/26/42 46/51/41 47/52/43 23/27/44
f 23/27/44 47/52/43 48/53/45 24/28/46
f 24/28/46 48/53/45 49/54/47 25/29/48
f 25/29/48 49/54/47 50/55/49 26/30/50
f 26/30/50 50/55/49 51/56/51 27/31/52
f 27/31/52 51/56/51 52/57/53 28/32/54
f 28/32/54 52/57/53 3/58/55 4/33/56
s 2
f 2/2/57 4/4/58 53/59/59 29/34/60
f 29/34/60 53/59/59 54/60/61 30/35/62
f 30/35/62 54/60/61 55/61/63 31/36/64
f 31/36/64 55/61/63 56/62/65 32/37/66
f 32/37/66 56/62/65 57/63/67 33/38/68
f 33/38/68 57/63/67 58/64/69 34/39/70
f 34/39/70 58/64/69 59/65/71 35/40/72
f 35/40/72 59/65/71 60/66/73 36/41/74
f 36/41/74 60/66/73 61/67/75 37/42/76
f 37/42/76 61/67/75 62/68/77 38/43/78
f 38/43/78 62/68/77 63/69/79 39/44/80
f 39/44/80 63/69/79 64/70/81 40/45/82
f 40/45/82 64/70/81 65/71/83 41/46/84
f 41/46/84 65/71/83 66/72/85 42/47/86
f 42/47/86 66/72/85 67/73/87 43/48/88
f 43/48/88 67/73/87 68/74/89 44/49/90
f 44/49/90 68/74/89 69/75/91 45/50/92
f 45/50/92 69/75/91 70/76/93 46/51/94
f 46/51/94 70/76/93 71/77/95 47/52/96
f 47/52/96 71/77/95 72/78/97 48/53/98
f 48/53/98 72/78/97 73/79/99 49/54/100
f 49/54/100 73/79/99 74/80/101 50/55/102
f 50/55/102 74/80/101 75/81/103 51/56/104
f 51/56/104 75/81/103 76/82/105 52/57/106
f 52/57/106 76/82/105 1/83/107 3/58/108
s 3
f 4/4/109 3/3/110 77/84/111 53/59/112
f 53/59/112 77/84/111 78/85/113 54/60/114
f 54/60/114 78/85/113 79/86/115 55/61/116
f 55/61/116 79/86/115 80/87/117 56/62/118
f 56/62/118 80/87/117 81/88/119 57/63/120
f 57/63/120 81/88/119 82/89/121 58/64/122
f 58/64/122 82/89/121 83/90/123 59/65/124
f 59/65/124 83/90/123 84/91/125 60/66/126
f 60/66/126 84/91/125 85/92/127 61/67/128
f 61/67/128 85/92/127 86/93/129 62/68/130
f 62/68/130 86/93/129 87/94/131 63/69/132
f 63/69/132 87/94/131 88/95/133 64/70/134
f 64/70/134 88/95/133 89/96/135 65/71/136
f 65/71/136 89/96/135 90/97/137 66/72/138
f 66/72/138 90/97/137 91/98/139 67/73/140
f 67/73/140 91/98/139 92/99/141 68/74/142
f 68/74/142 92/99/141 93/100/143 69/75/144
f 69/75/144 93/100/143 94/101/145 70/76/146
f 70/76/146 94/101/145 95/102/147 71/77/148
f 71/77/148 95/102/147 96/103/149 72/78/150
f 72/78/150 96/103/149 97/104/151 73/79/152
f 73/79/152 97/104/151 98/105/153 74/80/154
f 74/80/154 98/105/153 99/106/155 75/81/156
f 75/81/156 99/106/155 100/107/157 76/82/158
f 76/82/158 100/107/157 2/108/159 1/83/160
s 4
f 3/3/161 1/1/162 5/9/163 77/84/164
f 77/84/164 5/9/163 6/10/165 78/85/166
f 78/85/166 6/10/165 7/11/167 79/86/168
f 79/86/168 7/11/167 8/12/169 80/87/170
f 80/87/170 8/12/169 9/13/171 81/88/172
f 81/88/172 9/13/171 10/14/173 82/89/174
f 82/89/174 10/14/173 11/15/175 83/90/176
f 83/90/176 11/15/175 12/16/177 84/91/178
f 84/91/178 12/16/177 13/17/179 85/92/180
f 85/92/180 13/17/179 14/18/181 86/93/182
f 86/93/182 14/18/181 15/19/183 87/94/184
f 87/94/184 15/19/183 16/20/185 88/95/186
f 88/95/186 16/20/185 17/21/187 89/96/188
f 89/96/188 17/21/187 18/22/189 90/97/190
f 90/97/190 18/22/189 19/23/191 91/98/192
f 91/98/192 19/23/191 20/24/193 92/99/194
f 92/99/194 20/24/193 21/25/195 93/100/196
f 93/100/196 21/25/195 22/26/197 94/101/198
f 94/101/198 22/26/197 23/27/199 95/102/200
f 95/102/200 23/27/199 24/28/201 96/103/202
f 96/103/202 24/28/201 25/29/203 97/104/204
f 97/104/204 25/29/203 26/30/205 98/105/206
f 98/105/206 26/30/205 27/31/207 99/106/208
f 99/106/208 27/31/207 28/32/209 100/107/210
f 100/107/210 28/32/209 4/33/211 2/108/212
