# This file uses centimeters as units for non-parametric coordinates.

mtllib ring.mtl
g default
v 1.168474 -0.109963 -0.848946
v 0.848946 -0.109963 -1.168474
v 0.848946 0.109963 -1.168474
v 1.168474 0.109963 -0.848946
v 0.739302 -0.109963 -1.017563
v 0.739302 -0.109963 -1.017563
v 1.017563 -0.109963 -0.739302
v 1.017563 -0.109963 -0.739302
v 1.017563 0.109963 -0.739302
v 1.017563 0.109963 -0.739302
v 0.739302 0.109963 -1.017563
v 0.739302 0.109963 -1.017563
v -1.017562 0.109963 0.739302
v -1.168474 0.109963 0.848946
v -0.848946 0.109963 1.168474
v -0.739302 0.109963 1.017562
v -0.388674 -0.109963 1.196216
v -0.739302 -0.109963 1.017562
v -0.739302 0.109963 1.017562
v -0.388674 0.109963 1.196216
v 1.196216 -0.109963 -0.388674
v 1.196216 0.109963 -0.388674
v -0.848946 -0.109963 1.168474
v -0.446317 -0.109963 1.373623
v -0.446317 0.109963 1.373623
v 1.373624 -0.109963 -0.446317
v 1.373624 0.109963 -0.446317
v -0.000000 -0.109963 1.257776
v -0.000000 -0.109963 1.444313
v -0.388674 -0.109963 1.196216
v 1.444313 -0.109963 0.000000
v 1.257776 -0.109963 0.000000
v 1.257776 0.109963 0.000000
v -0.739302 -0.109963 1.017562
v -0.000000 0.109963 1.444313
v 1.444313 0.109963 0.000000
v -0.388674 0.109963 1.196216
v -0.000000 0.109963 1.257776
v 1.373623 -0.109963 0.446317
v 1.196216 -0.109963 0.388674
v 0.388674 -0.109963 1.196216
v 0.388674 0.109963 1.196216
v 1.373623 0.109963 0.446317
v 0.446317 -0.109963 1.373623
v 0.446317 0.109963 1.373623
v 1.196216 0.109963 0.388674
v 1.168473 -0.109963 0.848946
v 1.168473 0.109963 0.848946
v 0.848946 -0.109963 1.168473
v 0.848946 0.109963 1.168473
v 0.388674 -0.109963 1.196216
v 1.017562 -0.109963 0.739302
v 1.196216 -0.109963 0.388674
v 0.388674 0.109963 1.196216
v 0.739302 -0.109963 1.017562
v 0.739302 -0.109963 1.017562
v 1.017562 -0.109963 0.739302
v 1.196216 0.109963 0.388674
v 1.017562 0.109963 0.739302
v 0.739302 0.109963 1.017562
v 0.739302 0.109963 1.017562
v 1.017562 0.109963 0.739302
v -1.168474 -0.109963 0.848946
v -1.017562 -0.109963 0.739302
v -1.017562 -0.109963 0.739302
v -1.017562 0.109963 0.739302
v -1.196216 -0.109963 0.388674
v -1.196216 0.109963 0.388674
v 0.388674 -0.109963 -1.196216
v 0.388674 0.109963 -1.196216
v -1.373623 -0.109963 0.446317
v -1.373623 0.109963 0.446317
v 0.446317 -0.109963 -1.373624
v 0.446317 0.109963 -1.373624
v -1.257776 0.109963 0.000000
v -1.444313 0.109963 0.000000
v 0.388674 0.109963 -1.196216
v 0.000000 0.109963 -1.444313
v 0.000000 0.109963 -1.257776
v -1.257776 -0.109963 0.000000
v -1.444313 -0.109963 0.000000
v 0.000000 -0.109963 -1.444313
v 0.000000 -0.109963 -1.257776
v 0.388674 -0.109963 -1.196216
v -1.196216 0.109963 -0.388674
v -1.373623 0.109963 -0.446317
v -0.446317 0.109963 -1.373623
v -0.388674 0.109963 -1.196216
v -1.196216 -0.109963 -0.388674
v -0.388674 -0.109963 -1.196216
v -1.373623 -0.109963 -0.446317
v -0.446317 -0.109963 -1.373623
v -0.739302 -0.109963 -1.017562
v -0.739302 0.109963 -1.017562
v -1.017562 0.109963 -0.739302
v -1.168474 0.109963 -0.848946
v -1.168474 -0.109963 -0.848946
v -1.017562 -0.109963 -0.739302
v -0.848946 -0.109963 -1.168474
v -0.848946 0.109963 -1.168474
v -0.739302 0.109963 -1.017562
v -1.017562 0.109963 -0.739302
v -0.739302 -0.109963 -1.017562
v -1.017562 -0.109963 -0.739302
vt 0.387500 0.312500
vt 0.400000 0.312500
vt 0.400000 0.688440
vt 0.387500 0.688440
vt 0.400000 0.438434
vt 0.400000 0.438434
vt 0.387500 0.438434
vt 0.387500 0.438434
vt 0.387500 0.562506
vt 0.387500 0.562506
vt 0.400000 0.562506
vt 0.400000 0.562506
vt 0.389917 0.762963
vt 0.373591 0.751909
vt 0.408159 0.717341
vt 0.420020 0.732860
vt 0.610083 0.922923
vt 0.626409 0.935591
vt 0.591841 0.970159
vt 0.579980 0.953026
vt 0.537500 0.438434
vt 0.525000 0.438434
vt 0.525000 0.562506
vt 0.537500 0.562506
vt 0.375000 0.438434
vt 0.375000 0.562506
vt 0.525000 0.312500
vt 0.537500 0.312500
vt 0.537500 0.688440
vt 0.525000 0.688440
vt 0.375000 0.312500
vt 0.375000 0.688440
vt 0.626409 0.064408
vt 0.648603 0.107966
vt 0.629410 0.113395
vt 0.610083 0.075463
vt 0.610083 0.075463
vt 0.648603 0.892034
vt 0.610083 0.922923
vt 0.629410 0.884991
vt 0.500000 0.291513
vt 0.500000 0.312500
vt 0.451716 0.304853
vt 0.457952 0.284853
vt 0.656250 0.156250
vt 0.636070 0.155443
vt 0.625000 0.438434
vt 0.612500 0.438434
vt 0.612500 0.562506
vt 0.625000 0.562506
vt 0.408159 0.282659
vt 0.420020 0.265526
vt 0.420020 0.265526
vt 0.457952 0.284853
vt 0.550000 0.312500
vt 0.550000 0.688440
vt 0.612500 0.312500
vt 0.625000 0.312500
vt 0.625000 0.688440
vt 0.612500 0.688440
vt 0.457952 0.713533
vt 0.451716 0.695147
vt 0.500000 0.687500
vt 0.500000 0.706873
vt 0.636070 0.842943
vt 0.656250 0.843750
vt 0.648603 0.204534
vt 0.629410 0.197491
vt 0.562500 0.438434
vt 0.550000 0.438434
vt 0.550000 0.562506
vt 0.562500 0.562506
vt 0.457952 0.713533
vt 0.420020 0.732860
vt 0.600000 0.312500
vt 0.600000 0.688440
vt 0.562500 0.312500
vt 0.562500 0.688440
vt 0.629410 0.800895
vt 0.648603 0.795466
vt 0.587500 0.312500
vt 0.587500 0.688440
vt 0.575000 0.312500
vt 0.575000 0.688440
vt 0.537500 0.438434
vt 0.537500 0.562506
vt 0.548284 0.304853
vt 0.542048 0.284853
vt 0.542048 0.284853
vt 0.626409 0.248091
vt 0.610083 0.235423
vt 0.629410 0.197491
vt 0.548284 0.695147
vt 0.542048 0.713533
vt 0.542048 0.713533
vt 0.591841 0.282659
vt 0.579980 0.265526
vt 0.579980 0.265526
vt 0.610083 0.235423
vt 0.626409 0.751908
vt 0.629410 0.800895
vt 0.610083 0.762963
vt 0.591842 0.717341
vt 0.579980 0.732860
vt 0.579980 0.732860
vt 0.610083 0.762963
vt 0.600000 0.438434
vt 0.600000 0.438434
vt 0.600000 0.562506
vt 0.600000 0.562506
vt 0.575000 0.438434
vt 0.562500 0.438434
vt 0.562500 0.562506
vt 0.575000 0.562506
vt 0.587500 0.438434
vt 0.587500 0.438434
vt 0.587500 0.562506
vt 0.587500 0.562506
vt 0.575000 0.438434
vt 0.575000 0.562506
vt 0.512500 0.312500
vt 0.512500 0.688440
vt 0.525000 0.438434
vt 0.512500 0.438434
vt 0.512500 0.438434
vt 0.512500 0.562506
vt 0.512500 0.562506
vt 0.525000 0.562506
vt 0.579980 0.045360
vt 0.591842 0.029841
vt 0.373591 0.248091
vt 0.389917 0.235423
vt 0.500000 0.438434
vt 0.500000 0.562506
vt 0.412500 0.438434
vt 0.412500 0.562506
vt 0.500000 0.312500
vt 0.500000 0.688440
vt 0.412500 0.312500
vt 0.412500 0.688440
vt 0.351397 0.795466
vt 0.389917 0.762963
vt 0.370590 0.800895
vt 0.351397 0.204534
vt 0.370590 0.197491
vt 0.389917 0.235423
vt 0.363930 0.842943
vt 0.343750 0.843750
vt 0.542048 0.972353
vt 0.548284 0.992353
vt 0.500000 1.000000
vt 0.500000 0.979013
vt 0.487500 0.438434
vt 0.487500 0.562506
vt 0.542048 0.972353
vt 0.579980 0.953026
vt 0.487500 0.312500
vt 0.487500 0.688440
vt 0.425000 0.312500
vt 0.425000 0.688440
vt 0.343750 0.156250
vt 0.363930 0.155443
vt 0.500000 0.019373
vt 0.500000 -0.000000
vt 0.548284 0.007647
vt 0.542048 0.026033
vt 0.370590 0.884991
vt 0.351397 0.892034
vt 0.451716 0.992353
vt 0.457952 0.972353
vt 0.475000 0.438434
vt 0.475000 0.562506
vt 0.437500 0.438434
vt 0.425000 0.438434
vt 0.425000 0.562506
vt 0.437500 0.562506
vt 0.579980 0.045360
vt 0.542048 0.026033
vt 0.475000 0.312500
vt 0.475000 0.688440
vt 0.437500 0.312500
vt 0.437500 0.688440
vt 0.351397 0.107966
vt 0.370590 0.113395
vt 0.457952 0.026033
vt 0.451716 0.007647
vt 0.450000 0.438434
vt 0.450000 0.562506
vt 0.389917 0.922923
vt 0.373591 0.935591
vt 0.373591 0.064409
vt 0.389917 0.075463
vt 0.462500 0.312500
vt 0.462500 0.688440
vt 0.450000 0.312500
vt 0.450000 0.688440
vt 0.412500 0.438434
vt 0.412500 0.562506
vt 0.408159 0.970159
vt 0.420020 0.953026
vt 0.420020 0.953026
vt 0.389917 0.922923
vt 0.408159 0.029841
vt 0.420020 0.045360
vt 0.420020 0.045360
vt 0.389917 0.075463
vt 0.462500 0.438434
vt 0.462500 0.438434
vt 0.462500 0.562506
vt 0.462500 0.562506
vt 0.450000 0.438434
vt 0.450000 0.562506
vn 0.809017 0.000000 -0.587785
vn 0.587785 0.000000 -0.809017
vn 0.587785 0.000000 -0.809017
vn 0.809017 0.000000 -0.587785
vn -0.587785 0.000000 0.809017
vn -0.707107 0.000000 0.707107
vn -0.707107 0.000000 0.707107
vn -0.809017 0.000000 0.587785
vn -0.809017 0.000000 0.587785
vn -0.707107 0.000000 0.707107
vn -0.707107 0.000000 0.707107
vn -0.587785 0.000000 0.809017
vn 0.000000 1.000000 0.000000
vn 0.000000 1.000000 -0.000000
vn 0.000000 1.000000 0.000000
vn 0.000000 1.000000 0.000000
vn 0.000000 1.000000 0.000000
vn 0.000000 1.000000 0.000000
vn 0.000000 1.000000 0.000000
vn 0.000000 1.000000 0.000000
vn 0.309017 0.000000 -0.951057
vn 0.453991 0.000000 -0.891007
vn 0.453991 0.000000 -0.891007
vn 0.309017 0.000000 -0.951057
vn -0.951057 0.000000 0.309016
vn -0.951057 0.000000 0.309016
vn -0.587785 0.000000 0.809017
vn -0.309017 0.000000 0.951057
vn -0.309017 0.000000 0.951057
vn -0.587785 0.000000 0.809017
vn 0.951057 0.000000 -0.309016
vn 0.951057 0.000000 -0.309016
vn 0.000000 -1.000000 0.000000
vn 0.000000 -1.000000 0.000000
vn 0.000000 -1.000000 0.000000
vn 0.000000 -1.000000 0.000000
vn 0.000000 -1.000000 0.000000
vn 0.000000 1.000000 0.000000
vn 0.000000 1.000000 0.000000
vn 0.000000 1.000000 0.000000
vn 0.000000 -1.000000 -0.000000
vn 0.000000 -1.000000 -0.000000
vn 0.000000 -1.000000 0.000000
vn 0.000000 -1.000000 0.000000
vn 0.000000 -1.000000 0.000000
vn 0.000000 -1.000000 0.000000
vn -1.000000 0.000000 -0.000001
vn -1.000000 0.000000 -0.000001
vn 0.000000 -1.000000 0.000000
vn 0.000000 -1.000000 0.000000
vn 0.000000 -0.000000 0.000000
vn 0.000000 -1.000000 0.000000
vn 0.000000 0.000000 1.000000
vn 0.000000 0.000000 1.000000
vn 1.000000 0.000000 0.000001
vn 1.000000 0.000000 0.000001
vn 0.000000 1.000000 0.000000
vn 0.000000 1.000000 0.000000
vn 0.000000 1.000000 0.000000
vn 0.000000 1.000000 0.000000
vn 0.000000 1.000000 0.000000
vn 0.000000 1.000000 0.000000
vn 0.000000 -1.000000 0.000000
vn 0.000000 -1.000000 0.000000
vn -0.309017 0.000000 -0.951057
vn 0.000000 0.000000 -1.000000
vn 0.000000 0.000000 -1.000000
vn -0.309017 0.000000 -0.951057
vn 0.000000 1.000000 0.000000
vn 0.000000 0.000000 0.000000
vn 0.951057 0.000000 0.309017
vn 0.951057 0.000000 0.309017
vn 0.309017 0.000000 0.951057
vn 0.309017 0.000000 0.951057
vn 0.000000 1.000000 0.000000
vn 0.000000 1.000000 0.000000
vn 0.809017 0.000000 0.587785
vn 0.809017 0.000000 0.587785
vn 0.587785 0.000000 0.809017
vn 0.587785 0.000000 0.809017
vn 0.156434 0.000000 -0.987688
vn 0.156434 0.000000 -0.987688
vn 0.000000 -1.000000 0.000000
vn 0.000000 -1.000000 -0.000000
vn 0.000000 -1.000000 0.000000
vn 0.000000 -1.000000 0.000000
vn 0.000000 -1.000000 0.000000
vn 0.000000 -1.000000 0.000000
vn 0.000000 1.000000 0.000000
vn 0.000000 1.000000 0.000000
vn 0.000000 1.000000 0.000000
vn 0.000000 -1.000000 0.000000
vn 0.000000 -1.000000 0.000000
vn 0.000000 -1.000000 0.000000
vn 0.000000 -0.000000 0.000000
vn 0.000000 1.000000 -0.000000
vn 0.000000 1.000000 0.000000
vn 0.000000 1.000000 -0.000000
vn 0.000000 1.000000 -0.000000
vn 0.000000 1.000000 -0.000000
vn 0.000000 1.000000 0.000000
vn 0.000000 0.000000 -0.000000
vn -0.987688 0.000000 -0.156434
vn -0.951057 0.000000 -0.309017
vn -0.951057 0.000000 -0.309017
vn -0.987688 0.000000 -0.156434
vn -0.587785 0.000000 -0.809017
vn -0.453991 0.000000 -0.891006
vn -0.453991 0.000000 -0.891006
vn -0.587785 0.000000 -0.809017
vn -0.000000 0.000000 -0.000000
vn -0.707107 0.000000 -0.707107
vn -0.707107 0.000000 -0.707107
vn -0.000000 0.000000 -0.000000
vn -0.707107 0.000000 -0.707107
vn -0.707107 0.000000 -0.707107
vn -0.809017 0.000000 0.587785
vn -0.809017 0.000000 0.587785
vn 0.000000 0.000000 -0.000000
vn 0.000000 0.000000 -0.000000
vn 0.891006 0.000000 -0.453991
vn 0.891006 0.000000 -0.453991
vn 0.000000 0.000000 -0.000000
vn 0.000000 0.000000 -0.000000
vn 0.000000 -1.000000 -0.000000
vn 0.000000 -1.000000 -0.000000
vn 0.000000 -1.000000 0.000000
vn 0.000000 -1.000000 0.000000
vn 0.951057 0.000000 -0.309017
vn 0.951057 0.000000 -0.309017
vn -0.309017 0.000000 0.951057
vn -0.309017 0.000000 0.951057
vn -0.951057 0.000000 0.309017
vn -0.951057 0.000000 0.309017
vn 0.309017 0.000000 -0.951057
vn 0.309017 0.000000 -0.951057
vn 0.000000 1.000000 -0.000000
vn 0.000000 0.000000 -0.000000
vn 0.000000 1.000000 -0.000000
vn 0.000000 -1.000000 0.000000
vn 0.000000 -1.000000 0.000000
vn 0.000000 -0.000000 0.000000
vn 0.000000 1.000000 0.000000
vn 0.000000 1.000000 0.000000
vn 0.000000 1.000000 0.000000
vn 0.000000 1.000000 0.000000
vn 0.000000 1.000000 0.000000
vn 0.000000 1.000000 0.000000
vn 1.000000 0.000000 0.000000
vn 1.000000 0.000000 0.000000
vn 0.000000 1.000000 0.000000
vn 0.000000 1.000000 0.000000
vn -1.000000 0.000000 0.000000
vn -1.000000 0.000000 0.000000
vn -0.000000 0.000000 -1.000000
vn -0.000000 0.000000 -1.000000
vn 0.000000 -1.000000 0.000000
vn 0.000000 -1.000000 0.000000
vn 0.000000 -1.000000 0.000000
vn 0.000000 -1.000000 0.000000
vn 0.000000 -1.000000 -0.000000
vn 0.000000 -1.000000 -0.000000
vn 0.000000 1.000000 0.000000
vn 0.000000 1.000000 0.000000
vn 0.000000 1.000000 -0.000000
vn 0.000000 1.000000 -0.000000
vn 0.951057 0.000000 0.309017
vn 0.951057 0.000000 0.309017
vn 0.309017 0.000000 0.951056
vn 0.000000 0.000000 1.000000
vn 0.000000 0.000000 1.000000
vn 0.309017 0.000000 0.951056
vn 0.000000 -1.000000 -0.000000
vn 0.000000 -1.000000 -0.000000
vn -0.951057 0.000000 -0.309017
vn -0.951057 0.000000 -0.309017
vn -0.309017 0.000000 -0.951057
vn -0.309017 0.000000 -0.951057
vn 0.000000 -1.000000 0.000000
vn 0.000000 -1.000000 0.000000
vn 0.000000 -1.000000 0.000000
vn 0.000000 -1.000000 0.000000
vn 0.453991 0.000000 0.891006
vn 0.453991 0.000000 0.891006
vn 0.000000 1.000000 0.000000
vn 0.000000 1.000000 0.000000
vn 0.000000 -1.000000 0.000000
vn 0.000000 -1.000000 0.000000
vn -0.809017 0.000000 -0.587785
vn -0.809017 0.000000 -0.587785
vn -0.587785 0.000000 -0.809017
vn -0.587785 0.000000 -0.809017
vn -0.156434 0.000000 0.987688
vn -0.156434 0.000000 0.987688
vn 0.000000 1.000000 -0.000000
vn 0.000000 1.000000 -0.000000
vn 0.000000 0.000000 -0.000000
vn 0.000000 0.000000 0.000000
vn 0.000000 -1.000000 0.000000
vn 0.000000 -0.000000 0.000000
vn 0.000000 -1.000000 0.000000
vn 0.000000 -0.000000 0.000000
vn 0.000000 0.000000 0.000000
vn 0.707107 0.000000 0.707107
vn 0.707107 0.000000 0.707107
vn 0.000000 0.000000 0.000000
vn 0.000000 0.000000 0.000000
vn 0.000000 0.000000 0.000000
s 1
g pCylinder3
usemtl initialShadingGroup
f 1/1/1 2/2/2 3/3/3 4/4/4
s 2
f 5/5/5 6/6/6 7/7/7 8/8/8 9/9/9 10/10/10 11/11/11 12/12/12
s 3
f 13/13/13 14/14/14 15/15/15 16/16/16
f 10/17/17 4/18/18 3/19/19 11/20/20
s 2
f 17/21/21 18/22/22 19/23/23 20/24/24
f 8/8/8 21/25/25 22/26/26 9/9/9
s 1
f 23/27/27 24/28/28 25/29/29 15/30/30
f 26/31/31 1/1/1 4/4/4 27/32/32
s 7
f 1/33/33 26/34/34 21/35/35 8/36/36 7/37/37
s 3
f 27/38/38 4/18/18 10/17/17 9/39/39 22/40/40
s 7
f 28/41/41 29/42/42 24/43/43 30/44/44
f 21/35/35 26/34/34 31/45/45 32/46/46
s 2
f 21/47/25 32/48/47 33/49/48 22/50/26
s 7
f 24/43/43 23/51/49 34/52/50 18/53/51 17/54/52 30/44/44
s 1
f 24/28/28 29/55/53 35/56/54 25/29/29
f 31/57/55 26/58/31 27/59/32 36/60/56
s 3
f 37/61/57 25/62/58 35/63/59 38/64/60
f 33/65/61 36/66/62 27/38/38 22/40/40
s 7
f 32/46/46 31/45/45 39/67/63 40/68/64
s 2
f 41/69/65 28/70/66 38/71/67 42/72/68
s 3
f 15/15/15 25/62/58 37/61/57 20/73/69 19/74/70 16/16/16
s 1
f 39/75/71 31/57/55 36/60/56 43/76/72
f 29/55/53 44/77/73 45/78/74 35/56/54
s 3
f 46/79/75 43/80/76 36/66/62 33/65/61
s 1
f 47/81/77 39/75/71 43/76/72 48/82/78
f 44/77/73 49/83/79 50/84/80 45/78/74
f 49/83/79 47/81/77 48/82/78 50/84/80
s 2
f 28/70/66 30/85/81 17/21/21 20/24/24 37/86/82 38/71/67
s 7
f 44/87/83 29/42/42 28/41/41 41/88/84 51/89/85
f 39/67/63 47/90/86 52/91/87 53/92/88 40/68/64
s 3
f 35/63/59 45/93/89 54/94/90 42/95/91 38/64/60
s 7
f 49/96/92 44/87/83 51/89/85 55/97/93 56/98/94
f 47/90/86 49/96/92 56/98/94 57/99/95 52/91/87
s 3
f 48/100/96 43/80/76 46/79/75 58/101/97 59/102/98
f 45/93/89 50/103/99 60/104/100 61/105/101 54/94/90
f 50/103/99 48/100/96 59/102/98 62/106/102 60/104/100
s 2
f 32/48/47 40/107/103 53/108/104 58/109/105 46/110/106 33/49/48
f 55/111/107 51/112/108 41/69/65 42/72/68 54/113/109 61/114/110
f 53/108/104 52/115/111 57/116/112 62/117/113 59/118/114 58/109/105
f 57/116/112 56/119/115 55/111/107 61/114/110 60/120/116 62/117/113
s 1
f 63/121/117 23/27/27 15/30/30 14/122/118
s 2
f 18/22/22 34/123/119 64/124/120 65/125/121 66/126/122 13/127/123 16/128/124 19/23/23
s 7
f 6/129/125 2/130/126 1/33/33 7/37/37
f 34/52/50 23/51/49 63/131/127 64/132/128
s 2
f 65/125/121 67/133/129 68/134/130 66/126/122
f 69/135/131 5/5/5 12/12/12 70/136/132
s 1
f 71/137/133 63/121/117 14/122/118 72/138/134
f 2/2/2 73/139/135 74/140/136 3/3/3
s 3
f 72/141/137 14/14/14 13/13/13 66/142/138 68/143/139
s 7
f 63/131/127 71/144/140 67/145/141 65/146/142 64/132/128
s 3
f 75/147/143 76/148/144 72/141/137 68/143/139
f 77/149/145 74/150/146 78/151/147 79/152/148
s 2
f 67/133/129 80/153/149 75/154/150 68/134/130
s 3
f 3/19/19 74/150/146 77/149/145 70/155/151 12/156/152 11/20/20
s 1
f 81/157/153 71/137/133 72/138/134 76/158/154
f 73/139/135 82/159/155 78/160/156 74/140/136
s 7
f 67/145/141 71/144/140 81/161/157 80/162/158
f 83/163/159 82/164/160 73/165/161 84/166/162
s 3
f 85/167/163 86/168/164 76/148/144 75/147/143
f 79/152/148 78/151/147 87/169/165 88/170/166
s 2
f 80/153/149 89/171/167 85/172/168 75/154/150
f 90/173/169 83/174/170 79/175/171 88/176/172
s 7
f 73/165/161 2/130/126 6/129/125 5/177/173 69/178/174 84/166/162
s 1
f 91/179/175 81/157/153 76/158/154 86/180/176
f 82/159/155 92/181/177 87/182/178 78/160/156
s 7
f 80/162/158 81/161/157 91/183/179 89/184/180
f 90/185/181 92/186/182 82/164/160 83/163/159
s 2
f 93/187/183 90/173/169 88/176/172 94/188/184
s 3
f 95/189/185 96/190/186 86/168/164 85/167/163
s 7
f 89/184/180 91/183/179 97/191/187 98/192/188
s 1
f 97/193/189 91/179/175 86/180/176 96/194/190
f 92/181/177 99/195/191 100/196/192 87/182/178
f 99/195/191 97/193/189 96/194/190 100/196/192
s 2
f 83/174/170 84/197/193 69/135/131 70/136/132 77/198/194 79/175/171
s 3
f 87/169/165 100/199/195 101/200/196 94/201/197 88/170/166
f 100/199/195 96/190/186 95/189/185 102/202/198 101/200/196
s 7
f 99/203/199 92/186/182 90/185/181 93/204/200 103/205/201
f 97/191/187 99/203/199 103/205/201 104/206/202 98/192/188
s 2
f 89/171/167 98/207/203 104/208/204 102/209/205 95/210/206 85/172/168
f 104/208/204 103/211/207 93/187/183 94/188/184 101/212/208 102/209/205
