# This file uses centimeters as units for non-parametric coordinates.

mtllib z1.mtl
g default
v -0.218848 -0.218848 0.917566
v 0.218848 -0.218848 0.917566
v -0.218848 0.218848 0.917566
v 0.218848 0.218848 0.917566
v -0.218848 0.218848 -0.951247
v 0.218848 0.218848 -0.951247
v -0.218848 -0.218848 -0.951247
v 0.218848 -0.218848 -0.951247
v -0.218848 -0.218848 1.391213
v 0.218848 -0.218848 1.391213
v 0.218848 0.218848 1.391213
v -0.218848 0.218848 1.391213
v -0.218848 4.010173 0.917566
v 0.218848 4.010173 0.917566
v -0.218848 4.010173 1.391213
v 0.218848 4.010173 1.391213
v -0.218848 0.218848 -1.391213
v 0.218848 0.218848 -1.391213
v 0.218848 -0.218848 -1.391213
v -0.218848 -0.218848 -1.391213
v -0.218848 -1.884295 -0.951247
v 0.218848 -1.884295 -0.951247
v -0.218848 -1.884295 -1.391213
v 0.218848 -1.884295 -1.391213
vt 0.375000 0.000000
vt 0.625000 0.000000
vt 0.625000 0.250000
vt 0.375000 0.250000
vt 0.375000 0.250000
vt 0.625000 0.250000
vt 0.625000 0.500000
vt 0.375000 0.500000
vt 0.375000 0.500000
vt 0.625000 0.500000
vt 0.625000 0.750000
vt 0.375000 0.750000
vt 0.375000 0.750000
vt 0.625000 0.750000
vt 0.625000 1.000000
vt 0.375000 1.000000
vt 0.625000 0.000000
vt 0.875000 0.000000
vt 0.875000 0.250000
vt 0.125000 0.000000
vt 0.375000 0.000000
vt 0.125000 0.250000
vt 0.625000 0.250000
vt 0.375000 0.250000
vt 0.375000 0.250000
vt 0.625000 0.250000
vt 0.625000 0.750000
vt 0.375000 0.750000
vt 0.375000 0.750000
vt 0.625000 0.750000
vn 0.000000 0.000000 1.000000
vn 0.000000 0.000000 1.000000
vn 0.000000 0.000000 1.000000
vn 0.000000 0.000000 1.000000
vn 0.000000 1.000000 0.000000
vn 0.000000 1.000000 0.000000
vn 0.000000 1.000000 0.000000
vn 0.000000 1.000000 0.000000
vn 0.000000 0.000000 -1.000000
vn 0.000000 0.000000 -1.000000
vn 0.000000 0.000000 -1.000000
vn 0.000000 0.000000 -1.000000
vn 0.000000 -1.000000 0.000000
vn 0.000000 -1.000000 0.000000
vn 0.000000 -1.000000 0.000000
vn 0.000000 -1.000000 0.000000
vn 1.000000 0.000000 0.000000
vn 1.000000 0.000000 0.000000
vn 1.000000 0.000000 0.000000
vn 1.000000 0.000000 0.000000
vn -1.000000 0.000000 0.000000
vn -1.000000 0.000000 0.000000
vn -1.000000 0.000000 0.000000
vn -1.000000 0.000000 0.000000
vn 0.000000 -1.000000 0.000000
vn 0.000000 -1.000000 0.000000
vn 0.000000 -1.000000 0.000000
vn 0.000000 -1.000000 0.000000
vn 1.000000 0.000000 0.000000
vn 1.000000 0.000000 0.000000
vn 1.000000 0.000000 0.000000
vn 1.000000 0.000000 0.000000
vn 0.000000 1.000000 0.000000
vn 0.000000 1.000000 0.000000
vn 0.000000 1.000000 0.000000
vn 0.000000 1.000000 0.000000
vn -1.000000 0.000000 0.000000
vn -1.000000 0.000000 0.000000
vn -1.000000 0.000000 0.000000
vn -1.000000 0.000000 0.000000
vn 0.000000 0.000000 -1.000000
vn 0.000000 0.000000 -1.000000
vn 0.000000 0.000000 -1.000000
vn 0.000000 0.000000 -1.000000
vn -1.000000 0.000000 0.000000
vn -1.000000 0.000000 0.000000
vn -1.000000 0.000000 0.000000
vn -1.000000 0.000000 0.000000
vn 0.000000 0.000000 1.000000
vn 0.000000 0.000000 1.000000
vn 0.000000 0.000000 1.000000
vn 0.000000 0.000000 1.000000
vn 1.000000 0.000000 0.000000
vn 1.000000 0.000000 0.000000
vn 1.000000 0.000000 0.000000
vn 1.000000 0.000000 0.000000
vn 0.000000 1.000000 0.000000
vn 0.000000 1.000000 0.000000
vn 0.000000 1.000000 0.000000
vn 0.000000 1.000000 0.000000
vn 1.000000 0.000000 0.000000
vn 1.000000 0.000000 0.000000
vn 1.000000 0.000000 0.000000
vn 1.000000 0.000000 0.000000
vn 0.000000 -1.000000 0.000000
vn 0.000000 -1.000000 0.000000
vn 0.000000 -1.000000 0.000000
vn 0.000000 -1.000000 0.000000
vn -1.000000 0.000000 0.000000
vn -1.000000 0.000000 0.000000
vn -1.000000 0.000000 0.000000
vn -1.000000 0.000000 0.000000
vn 0.000000 0.000000 1.000000
vn 0.000000 0.000000 1.000000
vn 0.000000 0.000000 1.000000
vn 0.000000 0.000000 1.000000
vn -1.000000 0.000000 0.000000
vn -1.000000 0.000000 0.000000
vn -1.000000 0.000000 0.000000
vn -1.000000 0.000000 0.000000
vn 0.000000 0.000000 -1.000000
vn 0.000000 0.000000 -1.000000
vn 0.000000 0.000000 -1.000000
vn 0.000000 0.000000 -1.000000
vn 1.000000 0.000000 0.000000
vn 1.000000 0.000000 0.000000
vn 1.000000 0.000000 0.000000
vn 1.000000 0.000000 0.000000
s off
g z1:pCube1
usemtl z1:initialShadingGroup
f 9/1/1 10/2/2 11/3/3 12/4/4
f 3/5/5 4/6/6 6/7/7 5/8/8
f 17/9/9 18/10/10 19/11/11 20/12/12
f 7/13/13 8/14/14 2/15/15 1/16/16
f 2/17/17 8/18/18 6/19/19 4/6/20
f 7/20/21 1/21/22 3/5/23 5/22/24
f 1/21/25 2/17/26 10/2/27 9/1/28
f 2/17/29 4/6/30 11/3/31 10/2/32
f 14/23/33 13/24/34 15/25/35 16/26/36
f 3/5/37 1/21/38 9/1/39 12/4/40
f 4/6/41 3/5/42 13/24/43 14/23/44
f 3/5/45 12/4/46 15/25/47 13/24/48
f 12/4/49 11/3/50 16/26/51 15/25/52
f 11/3/53 4/6/54 14/23/55 16/26/56
f 5/8/57 6/7/58 18/10/59 17/9/60
f 6/7/61 8/14/62 19/11/63 18/10/64
f 22/27/65 21/28/66 23/29/67 24/30/68
f 7/13/69 5/8/70 17/9/71 20/12/72
f 8/14/73 7/13/74 21/28/75 22/27/76
f 7/13/77 20/12/78 23/29/79 21/28/80
f 20/12/81 19/11/82 24/30/83 23/29/84
f 19/11/85 8/14/86 22/27/87 24/30/88
